{"glyphs":{"0":{"ha":875,"x_min":0,"x_max":0,"o":"m 438 -15 b 74 486 204 -15 74 186 b 438 988 74 786 204 988 b 801 486 671 988 801 786 b 438 -15 801 186 671 -15 m 438 56 b 726 486 618 56 726 214 b 438 917 726 758 618 917 b 149 486 257 917 149 758 b 438 56 149 214 257 56 "},"1":{"ha":461,"x_min":0,"x_max":0,"o":"m 340 972 l 340 0 l 267 0 l 267 892 l 42 821 l 24 885 l 278 972 "},"2":{"ha":732,"x_min":0,"x_max":0,"o":"m 60 67 l 417 433 b 574 708 501 521 574 613 b 360 917 574 842 478 917 b 128 769 254 917 174 867 l 65 807 b 360 988 124 926 233 988 b 649 708 508 988 649 889 b 467 381 649 588 565 481 l 165 71 l 671 71 l 671 0 l 60 0 "},"3":{"ha":749,"x_min":0,"x_max":0,"o":"m 404 568 b 683 281 558 553 683 451 b 363 -15 683 93 535 -15 b 53 169 221 -15 100 50 l 114 206 b 363 56 150 108 240 56 b 610 281 504 56 610 140 b 360 506 610 421 504 506 l 339 506 l 307 554 l 553 903 l 78 903 l 78 972 l 638 972 l 638 903 l 404 568 "},"4":{"ha":796,"x_min":0,"x_max":0,"o":"m 761 204 l 636 204 l 636 0 l 563 0 l 563 204 l 39 204 l 39 274 l 408 972 l 489 972 l 121 274 l 563 274 l 563 579 l 636 579 l 636 274 l 761 274 "},"5":{"ha":751,"x_min":0,"x_max":0,"o":"m 369 576 b 693 281 544 576 693 468 b 369 -15 693 93 544 -15 b 63 181 231 -15 107 53 l 125 217 b 369 56 157 113 250 56 b 619 281 514 56 619 140 b 369 506 619 421 514 506 l 110 506 l 143 972 l 657 972 l 657 903 l 208 903 l 186 576 l 369 576 "},"6":{"ha":746,"x_min":0,"x_max":0,"o":"m 372 625 b 699 304 561 625 699 494 b 372 -15 699 115 561 -15 b 46 304 183 -15 46 115 b 106 499 46 381 68 446 l 432 972 l 515 972 l 267 610 b 372 625 300 619 335 625 m 372 56 b 625 304 526 56 625 160 b 372 554 625 450 526 554 b 121 304 218 554 121 450 b 372 56 121 160 218 56 "},"7":{"ha":681,"x_min":0,"x_max":0,"o":"m 621 972 l 621 903 l 243 0 l 167 0 l 544 903 l 32 903 l 32 972 "},"8":{"ha":764,"x_min":0,"x_max":0,"o":"m 531 503 b 704 260 635 461 704 374 b 382 -15 704 83 564 -15 b 60 260 200 -15 60 83 b 233 503 60 374 129 461 b 92 725 150 544 92 622 b 382 988 92 897 229 988 b 672 725 535 988 672 897 b 531 503 672 622 614 544 m 165 725 b 382 535 165 606 260 535 b 599 725 504 535 599 606 b 382 917 599 850 504 917 b 165 725 260 917 165 850 m 382 56 b 629 260 533 56 629 131 b 382 463 629 388 533 463 b 135 260 231 463 135 388 b 382 56 135 131 231 56 "},"9":{"ha":746,"x_min":0,"x_max":0,"o":"m 699 668 b 639 474 699 592 676 526 l 314 0 l 231 0 l 479 363 b 372 347 446 353 410 347 b 46 668 183 347 46 478 b 372 988 46 857 183 988 b 699 668 561 988 699 857 m 121 668 b 372 418 121 522 218 418 b 625 668 526 418 625 522 b 372 917 625 813 526 917 b 121 668 218 917 121 813 "},"A":{"ha":874,"x_min":0,"x_max":0,"o":"m 681 247 l 193 247 l 99 0 l 21 0 l 399 972 l 476 972 l 853 0 l 775 0 m 654 317 l 438 882 l 221 317 "},"Á":{"ha":874,"x_min":0,"x_max":0,"o":"m 447 1069 l 379 1069 l 490 1246 l 574 1246 m 681 247 l 193 247 l 99 0 l 21 0 l 399 972 l 476 972 l 853 0 l 775 0 m 654 317 l 438 882 l 221 317 "},"Ă":{"ha":874,"x_min":0,"x_max":0,"o":"m 438 1063 b 253 1232 326 1063 253 1126 l 319 1232 b 438 1124 319 1160 364 1124 b 556 1232 511 1124 556 1160 l 622 1232 b 438 1063 622 1126 550 1063 m 681 247 l 193 247 l 99 0 l 21 0 l 399 972 l 476 972 l 853 0 l 775 0 m 654 317 l 438 882 l 221 317 "},"Â":{"ha":874,"x_min":0,"x_max":0,"o":"m 325 1069 l 246 1069 l 396 1246 l 478 1246 l 628 1069 l 549 1069 l 438 1201 m 681 247 l 193 247 l 99 0 l 21 0 l 399 972 l 476 972 l 853 0 l 775 0 m 654 317 l 438 882 l 221 317 "},"Ä":{"ha":874,"x_min":0,"x_max":0,"o":"m 313 1079 b 261 1129 283 1079 261 1101 b 313 1181 261 1158 283 1181 b 363 1129 340 1181 363 1158 b 313 1079 363 1101 340 1079 m 563 1079 b 511 1129 533 1079 511 1101 b 563 1181 511 1158 533 1181 b 613 1129 590 1181 613 1158 b 563 1079 613 1101 590 1079 m 681 247 l 193 247 l 99 0 l 21 0 l 399 972 l 476 972 l 853 0 l 775 0 m 654 317 l 438 882 l 221 317 "},"À":{"ha":874,"x_min":0,"x_max":0,"o":"m 438 1069 l 310 1246 l 393 1246 l 504 1069 m 681 247 l 193 247 l 99 0 l 21 0 l 399 972 l 476 972 l 853 0 l 775 0 m 654 317 l 438 882 l 221 317 "},"Ā":{"ha":874,"x_min":0,"x_max":0,"o":"m 613 1093 l 261 1093 l 261 1154 l 613 1154 m 681 247 l 193 247 l 99 0 l 21 0 l 399 972 l 476 972 l 853 0 l 775 0 m 654 317 l 438 882 l 221 317 "},"Ą":{"ha":874,"x_min":0,"x_max":0,"o":"m 738 -182 b 793 -233 738 -217 760 -233 b 853 -221 817 -233 835 -229 l 853 -279 b 778 -293 832 -289 808 -293 b 669 -193 708 -293 669 -253 b 776 0 669 -137 704 -69 l 775 0 l 681 247 l 193 247 l 99 0 l 21 0 l 399 972 l 476 972 l 853 0 b 738 -182 782 -64 738 -129 m 654 317 l 438 882 l 221 317 "},"Å":{"ha":874,"x_min":0,"x_max":0,"o":"m 681 247 l 193 247 l 99 0 l 21 0 l 386 939 b 294 1065 329 957 294 1006 b 436 1200 294 1142 351 1200 b 579 1065 522 1200 579 1142 b 489 939 579 1006 544 957 l 853 0 l 775 0 m 354 1065 b 436 986 354 1019 385 986 b 521 1065 489 986 521 1019 b 436 1144 521 1111 489 1144 b 354 1065 385 1144 354 1111 m 654 317 l 438 882 l 221 317 "},"Ã":{"ha":874,"x_min":0,"x_max":0,"o":"m 435 1126 b 310 1088 357 1193 310 1196 l 249 1088 b 440 1190 249 1244 344 1274 b 565 1229 518 1124 565 1122 l 626 1229 b 435 1126 626 1074 531 1043 m 681 247 l 193 247 l 99 0 l 21 0 l 399 972 l 476 972 l 853 0 l 775 0 m 654 317 l 438 882 l 221 317 "},"Æ":{"ha":1213,"x_min":0,"x_max":0,"o":"m 1151 69 l 1151 0 l 624 0 l 624 254 l 244 254 l 89 0 l 4 0 l 600 972 l 1144 972 l 1144 903 l 699 903 l 699 525 l 1119 525 l 1119 456 l 699 456 l 699 69 m 624 324 l 624 876 l 286 324 "},"B":{"ha":865,"x_min":0,"x_max":0,"o":"m 639 504 b 806 265 736 467 806 376 b 540 0 806 118 688 0 l 121 0 l 121 972 l 508 972 b 764 717 650 972 764 857 b 639 504 764 622 714 544 m 194 903 l 194 531 l 508 531 b 690 717 608 531 690 614 b 508 903 690 819 608 903 m 540 69 b 732 265 646 69 732 157 b 540 461 732 374 646 461 l 194 461 l 194 69 l 540 69 "},"C":{"ha":1043,"x_min":0,"x_max":0,"o":"m 571 -15 b 65 486 275 -15 65 208 b 571 988 65 764 275 988 b 988 754 750 988 907 896 l 922 717 b 571 917 858 836 724 917 b 139 486 315 917 139 725 b 571 56 139 247 315 56 b 925 260 725 56 861 138 l 990 222 b 571 -15 911 79 753 -15 "},"Ć":{"ha":1043,"x_min":0,"x_max":0,"o":"m 581 1069 l 707 1246 l 624 1246 l 513 1069 m 571 -15 b 65 486 275 -15 65 208 b 571 988 65 764 275 988 b 988 754 750 988 907 896 l 922 717 b 571 917 858 836 724 917 b 139 486 315 917 139 725 b 571 56 139 247 315 56 b 925 260 725 56 861 138 l 990 222 b 571 -15 911 79 753 -15 "},"Č":{"ha":1043,"x_min":0,"x_max":0,"o":"m 379 1246 l 460 1246 l 571 1114 l 682 1246 l 763 1246 l 613 1069 l 529 1069 m 990 222 b 571 -15 911 79 753 -15 b 65 486 275 -15 65 208 b 571 988 65 764 275 988 b 988 754 750 988 907 896 l 922 717 b 571 917 858 836 724 917 b 139 486 315 917 139 725 b 571 56 139 247 315 56 b 925 260 725 56 861 138 "},"Ç":{"ha":1043,"x_min":0,"x_max":0,"o":"m 990 222 b 601 -14 915 88 771 -4 l 601 -78 b 728 -182 672 -86 728 -122 b 457 -293 728 -250 668 -310 l 457 -236 b 667 -182 597 -250 667 -226 b 539 -122 667 -142 621 -122 l 539 -14 b 65 486 260 1 65 218 b 571 988 65 764 275 988 b 988 754 750 988 907 896 l 922 717 b 571 917 858 836 724 917 b 139 486 315 917 139 725 b 571 56 139 247 315 56 b 925 260 725 56 861 138 l 990 222 "},"Ċ":{"ha":1043,"x_min":0,"x_max":0,"o":"m 571 1074 b 506 1139 533 1074 506 1103 b 571 1204 506 1175 533 1204 b 635 1139 607 1204 635 1175 b 571 1074 635 1103 607 1074 m 571 -15 b 65 486 275 -15 65 208 b 571 988 65 764 275 988 b 988 754 750 988 907 896 l 922 717 b 571 917 858 836 724 917 b 139 486 315 917 139 725 b 571 56 139 247 315 56 b 925 260 725 56 861 138 l 990 222 b 571 -15 911 79 753 -15 "},"D":{"ha":1010,"x_min":0,"x_max":0,"o":"m 486 972 b 944 486 754 972 944 754 b 486 0 944 218 754 0 l 121 0 l 121 972 l 486 972 m 486 69 b 872 486 715 69 872 256 b 486 903 872 717 715 903 l 194 903 l 194 69 l 486 69 "},"Ð":{"ha":1038,"x_min":0,"x_max":0,"o":"m 514 972 b 972 486 782 972 972 754 b 514 0 972 218 782 0 l 149 0 l 149 453 l 56 453 l 56 519 l 149 519 l 149 972 l 514 972 m 514 69 b 900 486 743 69 900 256 b 514 903 900 717 743 903 l 222 903 l 222 519 l 556 519 l 556 453 l 222 453 l 222 69 l 514 69 "},"Ď":{"ha":1010,"x_min":0,"x_max":0,"o":"m 294 1246 l 375 1246 l 486 1114 l 597 1246 l 678 1246 l 528 1069 l 444 1069 m 486 972 b 944 486 754 972 944 754 b 486 0 944 218 754 0 l 121 0 l 121 972 l 486 972 m 486 69 b 872 486 715 69 872 256 b 486 903 872 717 715 903 l 194 903 l 194 69 l 486 69 "},"Đ":{"ha":1038,"x_min":0,"x_max":0,"o":"m 514 972 b 972 486 782 972 972 754 b 514 0 972 218 782 0 l 149 0 l 149 453 l 56 453 l 56 519 l 149 519 l 149 972 l 514 972 m 514 69 b 900 486 743 69 900 256 b 514 903 900 717 743 903 l 222 903 l 222 519 l 556 519 l 556 453 l 222 453 l 222 69 l 514 69 "},"E":{"ha":740,"x_min":0,"x_max":0,"o":"m 681 69 l 681 0 l 121 0 l 121 972 l 674 972 l 674 903 l 194 903 l 194 525 l 639 525 l 639 456 l 194 456 l 194 69 "},"É":{"ha":740,"x_min":0,"x_max":0,"o":"m 407 1069 l 339 1069 l 450 1246 l 533 1246 m 681 69 l 681 0 l 121 0 l 121 972 l 674 972 l 674 903 l 194 903 l 194 525 l 639 525 l 639 456 l 194 456 l 194 69 "},"Ě":{"ha":740,"x_min":0,"x_max":0,"o":"m 206 1246 l 286 1246 l 397 1114 l 508 1246 l 589 1246 l 439 1069 l 356 1069 m 681 69 l 681 0 l 121 0 l 121 972 l 674 972 l 674 903 l 194 903 l 194 525 l 639 525 l 639 456 l 194 456 l 194 69 "},"Ê":{"ha":740,"x_min":0,"x_max":0,"o":"m 285 1069 l 206 1069 l 356 1246 l 438 1246 l 588 1069 l 508 1069 l 397 1201 m 681 69 l 681 0 l 121 0 l 121 972 l 674 972 l 674 903 l 194 903 l 194 525 l 639 525 l 639 456 l 194 456 l 194 69 "},"Ë":{"ha":740,"x_min":0,"x_max":0,"o":"m 272 1079 b 221 1129 243 1079 221 1101 b 272 1181 221 1158 243 1181 b 322 1129 300 1181 322 1158 b 272 1079 322 1101 300 1079 m 522 1079 b 471 1129 493 1079 471 1101 b 522 1181 471 1158 493 1181 b 572 1129 550 1181 572 1158 b 522 1079 572 1101 550 1079 m 681 69 l 681 0 l 121 0 l 121 972 l 674 972 l 674 903 l 194 903 l 194 525 l 639 525 l 639 456 l 194 456 l 194 69 "},"Ė":{"ha":740,"x_min":0,"x_max":0,"o":"m 397 1074 b 332 1139 360 1074 332 1103 b 397 1204 332 1175 360 1204 b 461 1139 433 1204 461 1175 b 397 1074 461 1103 433 1074 m 681 69 l 681 0 l 121 0 l 121 972 l 674 972 l 674 903 l 194 903 l 194 525 l 639 525 l 639 456 l 194 456 l 194 69 "},"È":{"ha":740,"x_min":0,"x_max":0,"o":"m 397 1069 l 269 1246 l 353 1246 l 464 1069 m 681 69 l 681 0 l 121 0 l 121 972 l 674 972 l 674 903 l 194 903 l 194 525 l 639 525 l 639 456 l 194 456 l 194 69 "},"Ē":{"ha":740,"x_min":0,"x_max":0,"o":"m 572 1093 l 221 1093 l 221 1154 l 572 1154 m 681 69 l 681 0 l 121 0 l 121 972 l 674 972 l 674 903 l 194 903 l 194 525 l 639 525 l 639 456 l 194 456 l 194 69 "},"Ę":{"ha":742,"x_min":0,"x_max":0,"o":"m 679 0 b 564 -182 608 -64 564 -129 b 621 -233 564 -217 586 -233 b 681 -221 643 -233 661 -229 l 681 -279 b 606 -293 658 -289 635 -293 b 496 -193 535 -293 496 -253 b 606 0 496 -136 532 -67 l 121 0 l 121 972 l 674 972 l 674 903 l 194 903 l 194 525 l 639 525 l 639 456 l 194 456 l 194 69 l 681 69 l 681 0 l 679 0 "},"F":{"ha":719,"x_min":0,"x_max":0,"o":"m 194 903 l 194 514 l 643 514 l 643 444 l 194 444 l 194 0 l 121 0 l 121 972 l 660 972 l 660 903 "},"G":{"ha":1110,"x_min":0,"x_max":0,"o":"m 1046 415 b 576 -15 1046 181 867 -15 b 65 486 275 -15 65 208 b 571 988 65 764 275 988 b 989 753 751 988 908 893 l 924 714 b 571 917 860 836 724 917 b 139 486 315 917 139 725 b 576 56 139 247 315 56 b 971 383 813 56 956 201 l 558 383 l 558 453 l 1046 453 "},"Ğ":{"ha":1110,"x_min":0,"x_max":0,"o":"m 557 1063 b 372 1232 446 1063 372 1126 l 439 1232 b 557 1124 439 1160 483 1124 b 675 1232 631 1124 675 1160 l 742 1232 b 557 1063 742 1126 669 1063 m 1046 415 b 576 -15 1046 181 867 -15 b 65 486 275 -15 65 208 b 571 988 65 764 275 988 b 989 753 751 988 908 893 l 924 714 b 571 917 860 836 724 917 b 139 486 315 917 139 725 b 576 56 139 247 315 56 b 971 383 813 56 956 201 l 558 383 l 558 453 l 1046 453 "},"Ģ":{"ha":1110,"x_min":0,"x_max":0,"o":"m 1046 415 b 576 -15 1046 181 867 -15 b 65 486 275 -15 65 208 b 571 988 65 764 275 988 b 989 753 751 988 908 893 l 924 714 b 571 917 860 836 724 917 b 139 486 315 917 139 725 b 576 56 139 247 315 56 b 971 383 813 56 956 201 l 558 383 l 558 453 l 1046 453 m 561 -97 l 632 -97 l 597 -333 l 547 -333 "},"Ġ":{"ha":1110,"x_min":0,"x_max":0,"o":"m 557 1074 b 492 1139 519 1074 492 1103 b 557 1204 492 1175 519 1204 b 621 1139 593 1204 621 1175 b 557 1074 621 1103 593 1074 m 1046 415 b 576 -15 1046 181 867 -15 b 65 486 275 -15 65 208 b 571 988 65 764 275 988 b 989 753 751 988 908 893 l 924 714 b 571 917 860 836 724 917 b 139 486 315 917 139 725 b 576 56 139 247 315 56 b 971 383 813 56 956 201 l 558 383 l 558 453 l 1046 453 "},"H":{"ha":954,"x_min":0,"x_max":0,"o":"m 833 972 l 833 0 l 760 0 l 760 465 l 194 465 l 194 0 l 121 0 l 121 972 l 194 972 l 194 535 l 760 535 l 760 972 "},"Ħ":{"ha":1028,"x_min":0,"x_max":0,"o":"m 963 719 l 871 719 l 871 0 l 796 0 l 796 465 l 232 465 l 232 0 l 157 0 l 157 719 l 65 719 l 65 781 l 157 781 l 157 972 l 232 972 l 232 781 l 796 781 l 796 972 l 871 972 l 871 781 l 963 781 m 796 719 l 232 719 l 232 535 l 796 535 "},"I":{"ha":315,"x_min":0,"x_max":0,"o":"m 194 972 l 194 0 l 121 0 l 121 972 "},"Í":{"ha":315,"x_min":0,"x_max":0,"o":"m 167 1069 l 293 1246 l 210 1246 l 99 1069 m 194 972 l 194 0 l 121 0 l 121 972 "},"Î":{"ha":315,"x_min":0,"x_max":0,"o":"m 347 1069 l 268 1069 l 157 1201 l 44 1069 l -35 1069 l 115 1246 l 197 1246 m 121 972 l 194 972 l 194 0 l 121 0 "},"Ï":{"ha":315,"x_min":0,"x_max":0,"o":"m 32 1079 b -19 1129 3 1079 -19 1101 b 32 1181 -19 1158 3 1181 b 82 1129 60 1181 82 1158 b 32 1079 82 1101 60 1079 m 282 1079 b 231 1129 253 1079 231 1101 b 282 1181 231 1158 253 1181 b 332 1129 310 1181 332 1158 b 282 1079 332 1101 310 1079 m 194 972 l 194 0 l 121 0 l 121 972 "},"İ":{"ha":315,"x_min":0,"x_max":0,"o":"m 157 1074 b 92 1139 119 1074 92 1103 b 157 1204 92 1175 119 1204 b 221 1139 193 1204 221 1175 b 157 1074 221 1103 193 1074 m 194 972 l 194 0 l 121 0 l 121 972 "},"Ì":{"ha":315,"x_min":0,"x_max":0,"o":"m 113 1246 l 29 1246 l 157 1069 l 224 1069 m 194 972 l 194 0 l 121 0 l 121 972 "},"Ī":{"ha":315,"x_min":0,"x_max":0,"o":"m -19 1154 l 332 1154 l 332 1093 l -19 1093 m 194 972 l 194 0 l 121 0 l 121 972 "},"Į":{"ha":315,"x_min":0,"x_max":0,"o":"m 185 -233 b 244 -221 208 -233 225 -229 l 244 -279 b 169 -293 224 -289 199 -293 b 60 -193 99 -293 60 -253 b 121 3 60 -133 88 -61 l 121 972 l 194 972 l 194 0 b 129 -182 158 -67 129 -119 b 185 -233 129 -217 151 -233 "},"J":{"ha":768,"x_min":0,"x_max":0,"o":"m 350 -15 b 60 147 217 -15 107 40 l 122 185 b 350 56 157 97 240 56 b 588 267 492 56 588 128 l 588 972 l 663 972 l 663 267 b 350 -15 663 81 522 -15 "},"K":{"ha":794,"x_min":0,"x_max":0,"o":"m 682 0 l 194 479 l 194 0 l 121 0 l 121 972 l 194 972 l 194 519 l 668 972 l 767 972 l 275 500 l 781 0 "},"Ķ":{"ha":794,"x_min":0,"x_max":0,"o":"m 781 0 l 682 0 l 194 479 l 194 0 l 121 0 l 121 972 l 194 972 l 194 519 l 668 972 l 767 972 l 275 500 m 397 -97 l 468 -97 l 433 -333 l 383 -333 "},"L":{"ha":685,"x_min":0,"x_max":0,"o":"m 653 69 l 653 0 l 121 0 l 121 972 l 194 972 l 194 69 "},"Ĺ":{"ha":685,"x_min":0,"x_max":0,"o":"m 189 1069 l 121 1069 l 232 1246 l 315 1246 m 653 69 l 653 0 l 121 0 l 121 972 l 194 972 l 194 69 "},"Ľ":{"ha":685,"x_min":0,"x_max":0,"o":"m 653 69 l 653 0 l 121 0 l 121 972 l 194 972 l 194 69 m 415 736 l 365 736 l 379 972 l 449 972 "},"Ļ":{"ha":685,"x_min":0,"x_max":0,"o":"m 653 69 l 653 0 l 121 0 l 121 972 l 194 972 l 194 69 m 363 -97 l 433 -97 l 399 -333 l 349 -333 "},"Ł":{"ha":708,"x_min":0,"x_max":0,"o":"m 676 69 l 676 0 l 144 0 l 144 347 l 60 297 l 60 365 l 144 415 l 144 972 l 218 972 l 218 458 l 472 608 l 472 540 l 218 390 l 218 69 "},"M":{"ha":1121,"x_min":0,"x_max":0,"o":"m 1000 0 l 926 0 l 926 864 l 567 267 l 554 267 l 194 864 l 194 0 l 121 0 l 121 972 l 213 972 l 560 397 l 907 972 l 1000 972 "},"N":{"ha":954,"x_min":0,"x_max":0,"o":"m 833 972 l 833 0 l 768 0 l 194 836 l 194 0 l 121 0 l 121 972 l 185 972 l 760 136 l 760 972 "},"Ń":{"ha":954,"x_min":0,"x_max":0,"o":"m 482 1069 l 608 1246 l 525 1246 l 414 1069 m 833 972 l 833 0 l 768 0 l 194 836 l 194 0 l 121 0 l 121 972 l 185 972 l 760 136 l 760 972 "},"Ň":{"ha":954,"x_min":0,"x_max":0,"o":"m 281 1246 l 361 1246 l 472 1114 l 583 1246 l 664 1246 l 514 1069 l 431 1069 m 833 972 l 833 0 l 768 0 l 194 836 l 194 0 l 121 0 l 121 972 l 185 972 l 760 136 l 760 972 "},"Ņ":{"ha":954,"x_min":0,"x_max":0,"o":"m 833 972 l 833 0 l 768 0 l 194 836 l 194 0 l 121 0 l 121 972 l 185 972 l 760 136 l 760 972 m 510 -97 l 439 -97 l 425 -333 l 475 -333 "},"Ŋ":{"ha":954,"x_min":0,"x_max":0,"o":"m 833 972 l 833 0 b 549 -278 833 -211 710 -278 l 549 -207 b 760 0 679 -207 760 -164 l 760 13 l 194 836 l 194 0 l 121 0 l 121 972 l 185 972 l 760 136 l 760 972 "},"Ñ":{"ha":954,"x_min":0,"x_max":0,"o":"m 283 1088 b 475 1190 283 1244 379 1274 b 600 1229 553 1124 600 1122 l 661 1229 b 469 1126 661 1074 565 1043 b 344 1088 392 1193 344 1196 l 283 1088 m 833 972 l 833 0 l 768 0 l 194 836 l 194 0 l 121 0 l 121 972 l 185 972 l 760 136 l 760 972 "},"O":{"ha":1133,"x_min":0,"x_max":0,"o":"m 567 -15 b 65 486 286 -15 65 208 b 567 988 65 764 286 988 b 1068 486 847 988 1068 764 b 567 -15 1068 208 847 -15 m 567 56 b 994 486 807 56 994 247 b 567 917 994 725 807 917 b 139 486 326 917 139 725 b 567 56 139 247 326 56 "},"Ó":{"ha":1133,"x_min":0,"x_max":0,"o":"m 576 1069 l 703 1246 l 619 1246 l 508 1069 m 567 -15 b 65 486 286 -15 65 208 b 567 988 65 764 286 988 b 1068 486 847 988 1068 764 b 567 -15 1068 208 847 -15 m 567 56 b 994 486 807 56 994 247 b 567 917 994 725 807 917 b 139 486 326 917 139 725 b 567 56 139 247 326 56 "},"Ô":{"ha":1133,"x_min":0,"x_max":0,"o":"m 454 1069 l 375 1069 l 525 1246 l 607 1246 l 757 1069 l 678 1069 l 567 1201 m 567 988 b 1068 486 847 988 1068 764 b 567 -15 1068 208 847 -15 b 65 486 286 -15 65 208 b 567 988 65 764 286 988 m 567 56 b 994 486 807 56 994 247 b 567 917 994 725 807 917 b 139 486 326 917 139 725 b 567 56 139 247 326 56 "},"Ö":{"ha":1133,"x_min":0,"x_max":0,"o":"m 442 1079 b 390 1129 413 1079 390 1101 b 442 1181 390 1158 413 1181 b 492 1129 469 1181 492 1158 b 442 1079 492 1101 469 1079 m 692 1079 b 640 1129 663 1079 640 1101 b 692 1181 640 1158 663 1181 b 742 1129 719 1181 742 1158 b 692 1079 742 1101 719 1079 m 567 -15 b 65 486 286 -15 65 208 b 567 988 65 764 286 988 b 1068 486 847 988 1068 764 b 567 -15 1068 208 847 -15 m 567 56 b 994 486 807 56 994 247 b 567 917 994 725 807 917 b 139 486 326 917 139 725 b 567 56 139 247 326 56 "},"Ò":{"ha":1133,"x_min":0,"x_max":0,"o":"m 522 1246 l 439 1246 l 567 1069 l 633 1069 m 567 -15 b 65 486 286 -15 65 208 b 567 988 65 764 286 988 b 1068 486 847 988 1068 764 b 567 -15 1068 208 847 -15 m 567 56 b 994 486 807 56 994 247 b 567 917 994 725 807 917 b 139 486 326 917 139 725 b 567 56 139 247 326 56 "},"Ő":{"ha":1133,"x_min":0,"x_max":0,"o":"m 467 1069 l 571 1250 l 493 1250 l 396 1069 m 664 1069 l 782 1250 l 704 1250 l 593 1069 m 567 -15 b 65 486 286 -15 65 208 b 567 988 65 764 286 988 b 1068 486 847 988 1068 764 b 567 -15 1068 208 847 -15 m 567 56 b 994 486 807 56 994 247 b 567 917 994 725 807 917 b 139 486 326 917 139 725 b 567 56 139 247 326 56 "},"Ō":{"ha":1133,"x_min":0,"x_max":0,"o":"m 390 1154 l 742 1154 l 742 1093 l 390 1093 m 567 -15 b 65 486 286 -15 65 208 b 567 988 65 764 286 988 b 1068 486 847 988 1068 764 b 567 -15 1068 208 847 -15 m 567 56 b 994 486 807 56 994 247 b 567 917 994 725 807 917 b 139 486 326 917 139 725 b 567 56 139 247 326 56 "},"Ø":{"ha":1147,"x_min":0,"x_max":0,"o":"m 929 849 b 1082 486 1024 757 1082 629 b 581 -15 1082 208 861 -15 b 276 86 465 -15 360 22 l 203 0 l 151 29 l 232 124 b 79 486 138 215 79 343 b 581 988 79 764 300 988 b 886 886 696 988 801 950 l 960 972 l 1010 943 l 929 849 m 153 486 b 279 178 153 365 201 257 l 839 831 b 581 917 768 885 678 917 b 153 486 340 917 153 725 m 581 56 b 1008 486 821 56 1008 247 b 882 793 1008 607 960 715 l 324 140 b 581 56 394 88 483 56 "},"Õ":{"ha":1133,"x_min":0,"x_max":0,"o":"m 378 1088 b 569 1190 378 1244 474 1274 b 694 1229 647 1124 694 1122 l 756 1229 b 564 1126 756 1074 660 1043 b 439 1088 486 1193 439 1196 l 378 1088 m 567 -15 b 65 486 286 -15 65 208 b 567 988 65 764 286 988 b 1068 486 847 988 1068 764 b 567 -15 1068 208 847 -15 m 567 56 b 994 486 807 56 994 247 b 567 917 994 725 807 917 b 139 486 326 917 139 725 b 567 56 139 247 326 56 "},"Œ":{"ha":1267,"x_min":0,"x_max":0,"o":"m 1207 69 l 1207 0 l 683 0 b 553 -15 644 -10 601 -15 b 65 486 267 -15 65 208 b 553 988 65 764 267 988 b 683 972 601 988 644 982 l 1200 972 l 1200 903 l 757 903 l 757 525 l 1174 525 l 1174 456 l 757 456 l 757 69 m 683 897 b 553 917 644 910 601 917 b 139 486 307 917 139 725 b 553 56 139 247 307 56 b 683 75 601 56 644 63 "},"P":{"ha":815,"x_min":0,"x_max":0,"o":"m 451 972 b 754 671 626 972 754 843 b 451 371 754 500 626 371 l 194 371 l 194 0 l 121 0 l 121 972 l 451 972 m 451 440 b 681 671 585 440 681 538 b 451 903 681 806 585 903 l 194 903 l 194 440 l 451 440 "},"Þ":{"ha":815,"x_min":0,"x_max":0,"o":"m 451 788 b 754 486 626 788 754 658 b 451 185 754 315 626 185 l 194 185 l 194 0 l 121 0 l 121 972 l 194 972 l 194 788 l 451 788 m 451 254 b 681 486 585 254 681 353 b 451 718 681 621 585 718 l 194 718 l 194 254 l 451 254 "},"Q":{"ha":1140,"x_min":0,"x_max":0,"o":"m 1068 486 b 915 125 1068 344 1010 217 l 1029 13 l 979 -33 l 863 81 b 567 -15 781 21 678 -15 b 65 486 289 -15 65 208 b 567 988 65 764 289 988 b 1068 486 844 988 1068 764 m 567 56 b 811 132 658 56 742 83 l 596 344 l 646 390 l 864 175 b 994 486 944 254 994 364 b 567 917 994 725 804 917 b 139 486 329 917 139 725 b 567 56 139 247 329 56 "},"R":{"ha":851,"x_min":0,"x_max":0,"o":"m 501 399 l 194 399 l 194 0 l 121 0 l 121 972 l 504 972 b 792 685 663 972 792 843 b 578 408 792 553 701 442 l 819 0 l 735 0 m 194 468 l 504 468 b 718 685 622 468 718 565 b 504 903 718 806 622 903 l 194 903 "},"Ŕ":{"ha":851,"x_min":0,"x_max":0,"o":"m 444 1069 l 376 1069 l 488 1246 l 571 1246 m 501 399 l 194 399 l 194 0 l 121 0 l 121 972 l 504 972 b 792 685 663 972 792 843 b 578 408 792 553 701 442 l 819 0 l 735 0 m 194 468 l 504 468 b 718 685 622 468 718 565 b 504 903 718 806 622 903 l 194 903 "},"Ř":{"ha":851,"x_min":0,"x_max":0,"o":"m 243 1246 l 324 1246 l 435 1114 l 546 1246 l 626 1246 l 476 1069 l 393 1069 m 501 399 l 194 399 l 194 0 l 121 0 l 121 972 l 504 972 b 792 685 663 972 792 843 b 578 408 792 553 701 442 l 819 0 l 735 0 m 194 468 l 504 468 b 718 685 622 468 718 565 b 504 903 718 806 622 903 l 194 903 "},"Ŗ":{"ha":851,"x_min":0,"x_max":0,"o":"m 735 0 l 501 399 l 194 399 l 194 0 l 121 0 l 121 972 l 504 972 b 792 685 663 972 792 843 b 578 408 792 553 701 442 l 819 0 m 194 468 l 504 468 b 718 685 622 468 718 565 b 504 903 718 806 622 903 l 194 903 m 429 -97 l 500 -97 l 465 -333 l 415 -333 "},"S":{"ha":797,"x_min":0,"x_max":0,"o":"m 418 -15 b 63 214 236 -15 107 76 l 126 251 b 418 56 160 135 258 56 b 663 250 581 56 663 139 b 411 458 663 367 560 411 b 103 726 249 511 103 557 b 397 988 103 886 232 988 b 710 783 557 988 663 896 l 647 749 b 397 917 611 836 536 917 b 178 729 263 917 178 838 b 415 531 178 613 276 576 b 738 251 588 474 738 419 b 418 -15 738 90 611 -15 "},"Ś":{"ha":797,"x_min":0,"x_max":0,"o":"m 399 1069 l 525 1246 l 442 1246 l 331 1069 m 418 -15 b 63 214 236 -15 107 76 l 126 251 b 418 56 160 135 258 56 b 663 250 581 56 663 139 b 411 458 663 367 560 411 b 103 726 249 511 103 557 b 397 988 103 886 232 988 b 710 783 557 988 663 896 l 647 749 b 397 917 611 836 536 917 b 178 729 263 917 178 838 b 415 531 178 613 276 576 b 738 251 588 474 738 419 b 418 -15 738 90 611 -15 "},"Š":{"ha":797,"x_min":0,"x_max":0,"o":"m 197 1246 l 278 1246 l 389 1114 l 500 1246 l 581 1246 l 431 1069 l 347 1069 m 415 531 b 738 251 588 474 738 419 b 418 -15 738 90 611 -15 b 63 214 236 -15 107 76 l 126 251 b 418 56 160 135 258 56 b 663 250 581 56 663 139 b 411 458 663 367 560 411 b 103 726 249 511 103 557 b 397 988 103 886 232 988 b 710 783 557 988 663 896 l 647 749 b 397 917 611 836 536 917 b 178 729 263 917 178 838 b 415 531 178 613 276 576 "},"Ş":{"ha":797,"x_min":0,"x_max":0,"o":"m 738 251 b 431 -15 738 94 617 -11 l 431 -78 b 557 -182 501 -86 557 -122 b 286 -293 557 -250 497 -310 l 286 -236 b 496 -182 426 -250 496 -226 b 368 -122 496 -142 450 -122 l 368 -12 b 63 214 213 3 103 89 l 126 251 b 418 56 160 135 258 56 b 663 250 581 56 663 139 b 411 458 663 367 560 411 b 103 726 249 511 103 557 b 397 988 103 886 232 988 b 710 783 557 988 663 896 l 647 749 b 397 917 611 836 536 917 b 178 729 263 917 178 838 b 415 531 178 613 276 576 b 738 251 588 474 738 419 "},"Ș":{"ha":797,"x_min":0,"x_max":0,"o":"m 418 -15 b 63 214 236 -15 107 76 l 126 251 b 418 56 160 135 258 56 b 663 250 581 56 663 139 b 411 458 663 367 560 411 b 103 726 249 511 103 557 b 397 988 103 886 232 988 b 710 783 557 988 663 896 l 647 749 b 397 917 611 836 536 917 b 178 729 263 917 178 838 b 415 531 178 613 276 576 b 738 251 588 474 738 419 b 418 -15 738 90 611 -15 m 451 -97 l 381 -97 l 367 -333 l 417 -333 "},"T":{"ha":750,"x_min":0,"x_max":0,"o":"m 718 903 l 413 903 l 413 0 l 338 0 l 338 903 l 32 903 l 32 972 l 718 972 "},"Ŧ":{"ha":750,"x_min":0,"x_max":0,"o":"m 413 903 l 413 519 l 625 519 l 625 453 l 413 453 l 413 0 l 338 0 l 338 453 l 125 453 l 125 519 l 338 519 l 338 903 l 32 903 l 32 972 l 718 972 l 718 903 "},"Ť":{"ha":750,"x_min":0,"x_max":0,"o":"m 183 1246 l 264 1246 l 375 1114 l 486 1246 l 567 1246 l 417 1069 l 333 1069 m 718 903 l 413 903 l 413 0 l 338 0 l 338 903 l 32 903 l 32 972 l 718 972 "},"Ţ":{"ha":750,"x_min":0,"x_max":0,"o":"m 718 903 l 413 903 l 413 0 l 338 0 l 338 903 l 32 903 l 32 972 l 718 972 m 342 -97 l 413 -97 l 378 -333 l 328 -333 "},"Ț":{"ha":750,"x_min":0,"x_max":0,"o":"m 718 903 l 413 903 l 413 0 l 338 0 l 338 903 l 32 903 l 32 972 l 718 972 m 342 -97 l 413 -97 l 378 -333 l 328 -333 "},"U":{"ha":926,"x_min":0,"x_max":0,"o":"m 463 -15 b 107 325 249 -15 107 119 l 107 972 l 181 972 l 181 325 b 463 56 181 167 279 56 b 746 325 647 56 746 167 l 746 972 l 819 972 l 819 325 b 463 -15 819 119 676 -15 "},"Ú":{"ha":926,"x_min":0,"x_max":0,"o":"m 471 1069 l 597 1246 l 514 1246 l 403 1069 m 463 -15 b 107 325 249 -15 107 119 l 107 972 l 181 972 l 181 325 b 463 56 181 167 279 56 b 746 325 647 56 746 167 l 746 972 l 819 972 l 819 325 b 463 -15 819 119 676 -15 "},"Û":{"ha":926,"x_min":0,"x_max":0,"o":"m 349 1069 l 269 1069 l 419 1246 l 501 1246 l 651 1069 l 572 1069 l 461 1201 m 819 972 l 819 325 b 463 -15 819 119 676 -15 b 107 325 249 -15 107 119 l 107 972 l 181 972 l 181 325 b 463 56 181 167 279 56 b 746 325 647 56 746 167 l 746 972 "},"Ü":{"ha":926,"x_min":0,"x_max":0,"o":"m 336 1079 b 285 1129 307 1079 285 1101 b 336 1181 285 1158 307 1181 b 386 1129 364 1181 386 1158 b 336 1079 386 1101 364 1079 m 586 1079 b 535 1129 557 1079 535 1101 b 586 1181 535 1158 557 1181 b 636 1129 614 1181 636 1158 b 586 1079 636 1101 614 1079 m 463 -15 b 107 325 249 -15 107 119 l 107 972 l 181 972 l 181 325 b 463 56 181 167 279 56 b 746 325 647 56 746 167 l 746 972 l 819 972 l 819 325 b 463 -15 819 119 676 -15 "},"Ù":{"ha":926,"x_min":0,"x_max":0,"o":"m 417 1246 l 333 1246 l 461 1069 l 528 1069 m 463 -15 b 107 325 249 -15 107 119 l 107 972 l 181 972 l 181 325 b 463 56 181 167 279 56 b 746 325 647 56 746 167 l 746 972 l 819 972 l 819 325 b 463 -15 819 119 676 -15 "},"Ű":{"ha":926,"x_min":0,"x_max":0,"o":"m 361 1069 l 465 1250 l 388 1250 l 290 1069 m 558 1069 l 676 1250 l 599 1250 l 488 1069 m 463 -15 b 107 325 249 -15 107 119 l 107 972 l 181 972 l 181 325 b 463 56 181 167 279 56 b 746 325 647 56 746 167 l 746 972 l 819 972 l 819 325 b 463 -15 819 119 676 -15 "},"Ū":{"ha":926,"x_min":0,"x_max":0,"o":"m 285 1154 l 636 1154 l 636 1093 l 285 1093 m 463 -15 b 107 325 249 -15 107 119 l 107 972 l 181 972 l 181 325 b 463 56 181 167 279 56 b 746 325 647 56 746 167 l 746 972 l 819 972 l 819 325 b 463 -15 819 119 676 -15 "},"Ų":{"ha":926,"x_min":0,"x_max":0,"o":"m 819 972 l 819 325 b 697 57 819 210 775 117 b 519 -182 567 -60 519 -115 b 575 -233 519 -217 542 -233 b 635 -221 599 -233 615 -229 l 635 -279 b 560 -293 614 -289 589 -293 b 450 -193 489 -293 450 -253 b 554 -7 450 -139 483 -74 b 463 -15 525 -12 494 -15 b 107 325 249 -15 107 119 l 107 972 l 181 972 l 181 325 b 463 56 181 167 279 56 b 746 325 647 56 746 167 l 746 972 "},"Ů":{"ha":926,"x_min":0,"x_max":0,"o":"m 460 1000 b 318 1135 375 1000 318 1058 b 460 1269 318 1211 375 1269 b 603 1135 546 1269 603 1211 b 460 1000 603 1058 546 1000 m 460 1056 b 544 1135 513 1056 544 1089 b 460 1214 544 1181 513 1214 b 378 1135 408 1214 378 1181 b 460 1056 378 1089 408 1056 m 463 -15 b 107 325 249 -15 107 119 l 107 972 l 181 972 l 181 325 b 463 56 181 167 279 56 b 746 325 647 56 746 167 l 746 972 l 819 972 l 819 325 b 463 -15 819 119 676 -15 "},"V":{"ha":840,"x_min":0,"x_max":0,"o":"m 18 972 l 99 972 l 419 96 l 742 972 l 821 972 l 458 0 l 381 0 "},"W":{"ha":1379,"x_min":0,"x_max":0,"o":"m 46 972 l 124 972 l 375 99 l 646 972 l 733 972 l 1006 99 l 1256 972 l 1333 972 l 1051 0 l 963 0 l 690 876 l 417 0 l 328 0 "},"Ẃ":{"ha":1379,"x_min":0,"x_max":0,"o":"m 668 1069 l 794 1246 l 711 1246 l 600 1069 m 46 972 l 124 972 l 375 99 l 646 972 l 733 972 l 1006 99 l 1256 972 l 1333 972 l 1051 0 l 963 0 l 690 876 l 417 0 l 328 0 "},"Ŵ":{"ha":1379,"x_min":0,"x_max":0,"o":"m 546 1069 l 467 1069 l 617 1246 l 699 1246 l 849 1069 l 769 1069 l 658 1201 m 1333 972 l 1051 0 l 963 0 l 690 876 l 417 0 l 328 0 l 46 972 l 124 972 l 375 99 l 646 972 l 733 972 l 1006 99 l 1256 972 "},"Ẅ":{"ha":1379,"x_min":0,"x_max":0,"o":"m 533 1079 b 482 1129 504 1079 482 1101 b 533 1181 482 1158 504 1181 b 583 1129 561 1181 583 1158 b 533 1079 583 1101 561 1079 m 783 1079 b 732 1129 754 1079 732 1101 b 783 1181 732 1158 754 1181 b 833 1129 811 1181 833 1158 b 783 1079 833 1101 811 1079 m 46 972 l 124 972 l 375 99 l 646 972 l 733 972 l 1006 99 l 1256 972 l 1333 972 l 1051 0 l 963 0 l 690 876 l 417 0 l 328 0 "},"Ẁ":{"ha":1379,"x_min":0,"x_max":0,"o":"m 614 1246 l 531 1246 l 658 1069 l 725 1069 m 46 972 l 124 972 l 375 99 l 646 972 l 733 972 l 1006 99 l 1256 972 l 1333 972 l 1051 0 l 963 0 l 690 876 l 417 0 l 328 0 "},"X":{"ha":796,"x_min":0,"x_max":0,"o":"m 679 0 l 399 433 l 118 0 l 32 0 l 356 500 l 50 972 l 135 972 l 399 565 l 661 972 l 746 972 l 440 500 l 764 0 "},"Y":{"ha":810,"x_min":0,"x_max":0,"o":"m 442 400 l 442 0 l 368 0 l 368 400 l 14 972 l 97 972 l 406 471 l 713 972 l 796 972 "},"Ý":{"ha":810,"x_min":0,"x_max":0,"o":"m 411 1069 l 343 1069 l 454 1246 l 538 1246 m 442 400 l 442 0 l 368 0 l 368 400 l 14 972 l 97 972 l 406 471 l 713 972 l 796 972 "},"Ŷ":{"ha":810,"x_min":0,"x_max":0,"o":"m 289 1069 l 210 1069 l 360 1246 l 442 1246 l 592 1069 l 513 1069 l 401 1201 m 442 400 l 442 0 l 368 0 l 368 400 l 14 972 l 97 972 l 406 471 l 713 972 l 796 972 "},"Ÿ":{"ha":810,"x_min":0,"x_max":0,"o":"m 276 1079 b 225 1129 247 1079 225 1101 b 276 1181 225 1158 247 1181 b 326 1129 304 1181 326 1158 b 276 1079 326 1101 304 1079 m 526 1079 b 475 1129 497 1079 475 1101 b 526 1181 475 1158 497 1181 b 576 1129 554 1181 576 1158 b 526 1079 576 1101 554 1079 m 442 400 l 442 0 l 368 0 l 368 400 l 14 972 l 97 972 l 406 471 l 713 972 l 796 972 "},"Ỳ":{"ha":810,"x_min":0,"x_max":0,"o":"m 401 1069 l 274 1246 l 357 1246 l 468 1069 m 442 400 l 442 0 l 368 0 l 368 400 l 14 972 l 97 972 l 406 471 l 713 972 l 796 972 "},"Z":{"ha":726,"x_min":0,"x_max":0,"o":"m 681 69 l 681 0 l 60 0 l 60 69 l 585 903 l 74 903 l 74 972 l 667 972 l 667 903 l 142 69 "},"Ź":{"ha":726,"x_min":0,"x_max":0,"o":"m 381 1069 l 313 1069 l 424 1246 l 507 1246 m 681 69 l 681 0 l 60 0 l 60 69 l 585 903 l 74 903 l 74 972 l 667 972 l 667 903 l 142 69 "},"Ž":{"ha":726,"x_min":0,"x_max":0,"o":"m 179 1246 l 260 1246 l 371 1114 l 482 1246 l 563 1246 l 413 1069 l 329 1069 m 681 69 l 681 0 l 60 0 l 60 69 l 585 903 l 74 903 l 74 972 l 667 972 l 667 903 l 142 69 "},"Ż":{"ha":726,"x_min":0,"x_max":0,"o":"m 371 1074 b 306 1139 333 1074 306 1103 b 371 1204 306 1175 333 1204 b 435 1139 407 1204 435 1175 b 371 1074 435 1103 407 1074 m 681 69 l 681 0 l 60 0 l 60 69 l 585 903 l 74 903 l 74 972 l 667 972 l 667 903 l 142 69 "},"a":{"ha":896,"x_min":0,"x_max":0,"o":"m 789 694 l 789 0 l 718 0 l 718 157 b 419 -15 660 53 553 -15 b 60 347 222 -15 60 142 b 419 710 60 553 222 710 b 718 538 553 710 660 642 l 718 694 m 425 51 b 718 347 590 51 718 182 b 425 643 718 513 590 643 b 131 347 260 643 131 513 b 425 51 131 182 260 51 "},"á":{"ha":896,"x_min":0,"x_max":0,"o":"m 436 792 l 368 792 l 479 968 l 563 968 m 789 694 l 789 0 l 718 0 l 718 157 b 419 -15 660 53 553 -15 b 60 347 222 -15 60 142 b 419 710 60 553 222 710 b 718 538 553 710 660 642 l 718 694 m 425 51 b 718 347 590 51 718 182 b 425 643 718 513 590 643 b 131 347 260 643 131 513 b 425 51 131 182 260 51 "},"ă":{"ha":896,"x_min":0,"x_max":0,"o":"m 426 785 b 242 954 315 785 242 849 l 308 954 b 426 846 308 882 353 846 b 544 954 500 846 544 882 l 611 954 b 426 785 611 849 539 785 m 789 694 l 789 0 l 718 0 l 718 157 b 419 -15 660 53 553 -15 b 60 347 222 -15 60 142 b 419 710 60 553 222 710 b 718 538 553 710 660 642 l 718 694 m 425 51 b 718 347 590 51 718 182 b 425 643 718 513 590 643 b 131 347 260 643 131 513 b 425 51 131 182 260 51 "},"â":{"ha":896,"x_min":0,"x_max":0,"o":"m 314 792 l 235 792 l 385 968 l 467 968 l 617 792 l 538 792 l 426 924 m 789 694 l 789 0 l 718 0 l 718 157 b 419 -15 660 53 553 -15 b 60 347 222 -15 60 142 b 419 710 60 553 222 710 b 718 538 553 710 660 642 l 718 694 m 425 51 b 718 347 590 51 718 182 b 425 643 718 513 590 643 b 131 347 260 643 131 513 b 425 51 131 182 260 51 "},"ä":{"ha":896,"x_min":0,"x_max":0,"o":"m 301 801 b 250 851 272 801 250 824 b 301 903 250 881 272 903 b 351 851 329 903 351 881 b 301 801 351 824 329 801 m 551 801 b 500 851 522 801 500 824 b 551 903 500 881 522 903 b 601 851 579 903 601 881 b 551 801 601 824 579 801 m 789 694 l 789 0 l 718 0 l 718 157 b 419 -15 660 53 553 -15 b 60 347 222 -15 60 142 b 419 710 60 553 222 710 b 718 538 553 710 660 642 l 718 694 m 425 51 b 718 347 590 51 718 182 b 425 643 718 513 590 643 b 131 347 260 643 131 513 b 425 51 131 182 260 51 "},"à":{"ha":896,"x_min":0,"x_max":0,"o":"m 426 792 l 299 968 l 382 968 l 493 792 m 789 694 l 789 0 l 718 0 l 718 157 b 419 -15 660 53 553 -15 b 60 347 222 -15 60 142 b 419 710 60 553 222 710 b 718 538 553 710 660 642 l 718 694 m 425 51 b 718 347 590 51 718 182 b 425 643 718 513 590 643 b 131 347 260 643 131 513 b 425 51 131 182 260 51 "},"ā":{"ha":896,"x_min":0,"x_max":0,"o":"m 601 815 l 250 815 l 250 876 l 601 876 m 789 694 l 789 0 l 718 0 l 718 157 b 419 -15 660 53 553 -15 b 60 347 222 -15 60 142 b 419 710 60 553 222 710 b 718 538 553 710 660 642 l 718 694 m 425 51 b 718 347 590 51 718 182 b 425 643 718 513 590 643 b 131 347 260 643 131 513 b 425 51 131 182 260 51 "},"ą":{"ha":896,"x_min":0,"x_max":0,"o":"m 789 0 b 674 -182 718 -64 674 -129 b 729 -233 674 -217 696 -233 b 789 -221 751 -233 769 -229 l 789 -279 b 714 -293 767 -289 743 -293 b 606 -193 644 -293 606 -253 b 718 14 606 -137 639 -67 l 718 157 b 419 -15 660 53 553 -15 b 60 347 222 -15 60 142 b 419 710 60 553 222 710 b 718 538 553 710 660 642 l 718 694 l 789 694 l 789 0 m 425 51 b 718 347 590 51 718 182 b 425 643 718 513 590 643 b 131 347 260 643 131 513 b 425 51 131 182 260 51 "},"å":{"ha":896,"x_min":0,"x_max":0,"o":"m 426 768 b 285 903 342 768 285 826 b 426 1038 285 979 342 1038 b 569 903 513 1038 569 979 b 426 768 569 826 513 768 m 426 982 b 344 903 375 982 344 949 b 426 824 344 857 375 824 b 511 903 479 824 511 857 b 426 982 511 949 479 982 m 789 694 l 789 0 l 718 0 l 718 157 b 419 -15 660 53 553 -15 b 60 347 222 -15 60 142 b 419 710 60 553 222 710 b 718 538 553 710 660 642 l 718 694 m 425 51 b 718 347 590 51 718 182 b 425 643 718 513 590 643 b 131 347 260 643 131 513 b 425 51 131 182 260 51 "},"ã":{"ha":896,"x_min":0,"x_max":0,"o":"m 424 849 b 299 810 346 915 299 918 l 238 810 b 429 913 238 967 333 996 b 554 951 507 846 554 844 l 615 951 b 424 849 615 796 519 765 m 789 694 l 789 0 l 718 0 l 718 157 b 419 -15 660 53 553 -15 b 60 347 222 -15 60 142 b 419 710 60 553 222 710 b 718 538 553 710 660 642 l 718 694 m 425 51 b 718 347 590 51 718 182 b 425 643 718 513 590 643 b 131 347 260 643 131 513 b 425 51 131 182 260 51 "},"æ":{"ha":1474,"x_min":0,"x_max":0,"o":"m 1079 710 b 1418 344 1297 710 1418 535 b 1417 311 1418 333 1417 322 l 790 311 b 1079 51 806 154 921 51 b 1325 178 1199 51 1285 104 l 1386 142 b 1088 -15 1331 47 1222 -15 b 788 158 947 -15 842 50 l 788 0 l 718 0 l 718 157 b 419 -15 660 53 553 -15 b 60 347 222 -15 60 142 b 419 710 60 553 222 710 b 718 538 553 710 660 642 l 718 694 l 788 694 l 788 533 b 1079 710 840 640 940 710 m 425 51 b 718 347 590 51 718 182 b 425 643 718 513 590 643 b 131 347 260 643 131 513 b 425 51 131 182 260 51 m 1076 643 b 790 379 914 643 804 533 l 1347 379 b 1076 643 1332 549 1217 643 "},"b":{"ha":896,"x_min":0,"x_max":0,"o":"m 475 710 b 835 347 674 710 835 553 b 475 -15 835 142 674 -15 b 176 161 340 -15 233 54 l 176 0 l 107 0 l 107 972 l 176 972 l 176 533 b 475 710 233 640 340 710 m 471 51 b 765 347 636 51 765 182 b 471 643 765 513 636 643 b 176 347 306 643 176 513 b 471 51 176 182 306 51 "},"c":{"ha":779,"x_min":0,"x_max":0,"o":"m 425 -15 b 60 347 215 -15 60 142 b 425 710 60 553 215 710 b 728 532 561 710 678 640 l 671 499 b 425 643 631 586 536 643 b 131 347 257 643 131 513 b 425 51 131 182 257 51 b 675 196 538 51 629 110 l 733 161 b 425 -15 678 54 561 -15 "},"ć":{"ha":779,"x_min":0,"x_max":0,"o":"m 425 792 l 551 968 l 468 968 l 357 792 m 425 -15 b 60 347 215 -15 60 142 b 425 710 60 553 215 710 b 728 532 561 710 678 640 l 671 499 b 425 643 631 586 536 643 b 131 347 257 643 131 513 b 425 51 131 182 257 51 b 675 196 538 51 629 110 l 733 161 b 425 -15 678 54 561 -15 "},"č":{"ha":779,"x_min":0,"x_max":0,"o":"m 224 968 l 304 968 l 415 836 l 526 968 l 607 968 l 457 792 l 374 792 m 733 161 b 425 -15 678 54 561 -15 b 60 347 215 -15 60 142 b 425 710 60 553 215 710 b 728 532 561 710 678 640 l 671 499 b 425 643 631 586 536 643 b 131 347 257 643 131 513 b 425 51 131 182 257 51 b 675 196 538 51 629 110 "},"ç":{"ha":779,"x_min":0,"x_max":0,"o":"m 733 161 b 456 -14 682 63 578 -4 l 456 -78 b 582 -182 526 -86 582 -122 b 311 -293 582 -250 522 -310 l 311 -236 b 521 -182 451 -250 521 -226 b 393 -122 521 -142 475 -122 l 393 -14 b 60 347 200 1 60 153 b 425 710 60 553 215 710 b 728 532 561 710 678 640 l 671 499 b 425 643 631 586 536 643 b 131 347 257 643 131 513 b 425 51 131 182 257 51 b 675 196 538 51 629 110 l 733 161 "},"ċ":{"ha":779,"x_min":0,"x_max":0,"o":"m 415 796 b 350 861 378 796 350 825 b 415 926 350 897 378 926 b 479 861 451 926 479 897 b 415 796 479 825 451 796 m 425 -15 b 60 347 215 -15 60 142 b 425 710 60 553 215 710 b 728 532 561 710 678 640 l 671 499 b 425 643 631 586 536 643 b 131 347 257 643 131 513 b 425 51 131 182 257 51 b 675 196 538 51 629 110 l 733 161 b 425 -15 678 54 561 -15 "},"d":{"ha":896,"x_min":0,"x_max":0,"o":"m 789 972 l 789 0 l 719 0 l 719 161 b 421 -15 663 54 556 -15 b 61 347 222 -15 61 142 b 421 710 61 553 222 710 b 719 533 556 710 663 640 l 719 972 m 425 51 b 719 347 590 51 719 182 b 425 643 719 513 590 643 b 131 347 260 643 131 513 b 425 51 131 182 260 51 "},"ð":{"ha":815,"x_min":0,"x_max":0,"o":"m 692 514 b 756 319 731 461 756 396 b 408 -15 756 114 592 -15 b 60 319 225 -15 60 114 b 397 646 60 517 222 646 b 535 615 451 646 496 635 l 392 806 l 226 704 l 226 768 l 360 850 l 268 972 l 350 972 l 415 885 l 569 979 l 569 915 l 449 840 l 692 514 m 408 51 b 685 319 560 51 685 158 b 639 475 685 379 671 432 b 408 579 592 538 521 579 b 131 319 251 579 131 472 b 408 51 131 158 257 51 "},"ď":{"ha":968,"x_min":0,"x_max":0,"o":"m 719 972 l 789 972 l 789 0 l 719 0 l 719 161 b 421 -15 663 54 556 -15 b 61 347 222 -15 61 142 b 421 710 61 553 222 710 b 719 533 556 710 663 640 m 976 972 l 943 736 l 893 736 l 907 972 m 425 51 b 719 347 590 51 719 182 b 425 643 719 513 590 643 b 131 347 260 643 131 513 b 425 51 131 182 260 51 "},"đ":{"ha":907,"x_min":0,"x_max":0,"o":"m 883 808 l 789 808 l 789 0 l 718 0 l 718 158 b 419 -15 661 53 553 -15 b 60 347 222 -15 60 142 b 419 710 60 553 222 710 b 718 536 553 710 661 642 l 718 808 l 439 808 l 439 867 l 718 867 l 718 972 l 789 972 l 789 867 l 883 867 m 425 51 b 718 347 590 51 718 182 b 425 643 718 513 590 643 b 131 347 260 643 131 513 b 425 51 131 182 260 51 "},"e":{"ha":818,"x_min":0,"x_max":0,"o":"m 419 710 b 763 344 631 710 763 535 b 761 311 763 333 761 322 l 132 311 b 426 51 149 154 268 51 b 667 178 540 51 626 104 l 728 142 b 425 -15 671 47 563 -15 b 60 347 211 -15 60 138 b 419 710 60 551 207 710 m 419 643 b 132 379 261 643 146 533 l 690 379 b 419 643 675 549 556 643 "},"é":{"ha":818,"x_min":0,"x_max":0,"o":"m 421 792 l 353 792 l 464 968 l 547 968 m 419 710 b 763 344 631 710 763 535 b 761 311 763 333 761 322 l 132 311 b 426 51 149 154 268 51 b 667 178 540 51 626 104 l 728 142 b 425 -15 671 47 563 -15 b 60 347 211 -15 60 138 b 419 710 60 551 207 710 m 419 643 b 132 379 261 643 146 533 l 690 379 b 419 643 675 549 556 643 "},"ě":{"ha":818,"x_min":0,"x_max":0,"o":"m 219 968 l 300 968 l 411 836 l 522 968 l 603 968 l 453 792 l 369 792 m 419 710 b 763 344 631 710 763 535 b 761 311 763 333 761 322 l 132 311 b 426 51 149 154 268 51 b 667 178 540 51 626 104 l 728 142 b 425 -15 671 47 563 -15 b 60 347 211 -15 60 138 b 419 710 60 551 207 710 m 419 643 b 132 379 261 643 146 533 l 690 379 b 419 643 675 549 556 643 "},"ê":{"ha":818,"x_min":0,"x_max":0,"o":"m 299 792 l 219 792 l 369 968 l 451 968 l 601 792 l 522 792 l 411 924 m 419 710 b 763 344 631 710 763 535 b 761 311 763 333 761 322 l 132 311 b 426 51 149 154 268 51 b 667 178 540 51 626 104 l 728 142 b 425 -15 671 47 563 -15 b 60 347 211 -15 60 138 b 419 710 60 551 207 710 m 419 643 b 132 379 261 643 146 533 l 690 379 b 419 643 675 549 556 643 "},"ë":{"ha":818,"x_min":0,"x_max":0,"o":"m 286 801 b 235 851 257 801 235 824 b 286 903 235 881 257 903 b 336 851 314 903 336 881 b 286 801 336 824 314 801 m 536 801 b 485 851 507 801 485 824 b 536 903 485 881 507 903 b 586 851 564 903 586 881 b 536 801 586 824 564 801 m 419 710 b 763 344 631 710 763 535 b 761 311 763 333 761 322 l 132 311 b 426 51 149 154 268 51 b 667 178 540 51 626 104 l 728 142 b 425 -15 671 47 563 -15 b 60 347 211 -15 60 138 b 419 710 60 551 207 710 m 419 643 b 132 379 261 643 146 533 l 690 379 b 419 643 675 549 556 643 "},"ė":{"ha":818,"x_min":0,"x_max":0,"o":"m 411 796 b 346 861 374 796 346 825 b 411 926 346 897 374 926 b 475 861 447 926 475 897 b 411 796 475 825 447 796 m 419 710 b 763 344 631 710 763 535 b 761 311 763 333 761 322 l 132 311 b 426 51 149 154 268 51 b 667 178 540 51 626 104 l 728 142 b 425 -15 671 47 563 -15 b 60 347 211 -15 60 138 b 419 710 60 551 207 710 m 419 643 b 132 379 261 643 146 533 l 690 379 b 419 643 675 549 556 643 "},"è":{"ha":818,"x_min":0,"x_max":0,"o":"m 411 792 l 283 968 l 367 968 l 478 792 m 419 710 b 763 344 631 710 763 535 b 761 311 763 333 761 322 l 132 311 b 426 51 149 154 268 51 b 667 178 540 51 626 104 l 728 142 b 425 -15 671 47 563 -15 b 60 347 211 -15 60 138 b 419 710 60 551 207 710 m 419 643 b 132 379 261 643 146 533 l 690 379 b 419 643 675 549 556 643 "},"ē":{"ha":818,"x_min":0,"x_max":0,"o":"m 586 815 l 235 815 l 235 876 l 586 876 m 419 710 b 763 344 631 710 763 535 b 761 311 763 333 761 322 l 132 311 b 426 51 149 154 268 51 b 667 178 540 51 626 104 l 728 142 b 425 -15 671 47 563 -15 b 60 347 211 -15 60 138 b 419 710 60 551 207 710 m 419 643 b 132 379 261 643 146 533 l 690 379 b 419 643 675 549 556 643 "},"ę":{"ha":818,"x_min":0,"x_max":0,"o":"m 419 710 b 763 344 631 710 763 535 b 761 311 763 333 761 322 l 132 311 b 426 51 149 154 268 51 b 667 178 540 51 626 104 l 728 142 b 674 76 713 118 696 96 b 504 -182 549 -62 504 -131 b 561 -233 504 -217 526 -233 b 621 -221 583 -233 601 -229 l 621 -279 b 544 -293 599 -289 574 -293 b 436 -193 475 -293 436 -253 b 540 1 436 -143 467 -75 b 425 -15 506 -10 467 -15 b 60 347 211 -15 60 138 b 419 710 60 551 207 710 m 419 643 b 132 379 261 643 146 533 l 690 379 b 419 643 675 549 556 643 "},"f":{"ha":435,"x_min":0,"x_max":0,"o":"m 435 921 b 228 732 293 932 228 867 l 228 694 l 435 694 l 435 626 l 228 626 l 228 0 l 157 0 l 157 626 l 38 626 l 38 694 l 157 694 l 157 732 b 435 988 157 903 253 1001 l 435 921 "},"g":{"ha":900,"x_min":0,"x_max":0,"o":"m 793 694 l 793 33 b 447 -293 793 -175 639 -293 b 119 -126 285 -293 169 -228 l 181 -92 b 447 -226 217 -165 294 -226 b 724 33 621 -226 724 -125 l 724 161 b 425 -15 667 54 560 -15 b 65 347 226 -15 65 142 b 425 710 65 553 226 710 b 724 533 560 710 667 640 l 724 694 m 429 51 b 724 347 594 51 724 182 b 429 643 724 513 594 643 b 135 347 264 643 135 513 b 429 51 135 182 264 51 "},"ğ":{"ha":900,"x_min":0,"x_max":0,"o":"m 438 785 b 253 954 326 785 253 849 l 319 954 b 438 846 319 882 364 846 b 556 954 511 846 556 882 l 622 954 b 438 785 622 849 550 785 m 793 694 l 793 33 b 447 -293 793 -175 639 -293 b 119 -126 285 -293 169 -228 l 181 -92 b 447 -226 217 -165 294 -226 b 724 33 621 -226 724 -125 l 724 161 b 425 -15 667 54 560 -15 b 65 347 226 -15 65 142 b 425 710 65 553 226 710 b 724 533 560 710 667 640 l 724 694 m 429 51 b 724 347 594 51 724 182 b 429 643 724 513 594 643 b 135 347 264 643 135 513 b 429 51 135 182 264 51 "},"ģ":{"ha":900,"x_min":0,"x_max":0,"o":"m 464 819 l 393 819 l 428 1056 l 478 1056 m 793 694 l 793 33 b 447 -293 793 -175 639 -293 b 119 -126 285 -293 169 -228 l 181 -92 b 447 -226 217 -165 294 -226 b 724 33 621 -226 724 -125 l 724 161 b 425 -15 667 54 560 -15 b 65 347 226 -15 65 142 b 425 710 65 553 226 710 b 724 533 560 710 667 640 l 724 694 m 429 51 b 724 347 594 51 724 182 b 429 643 724 513 594 643 b 135 347 264 643 135 513 b 429 51 135 182 264 51 "},"ġ":{"ha":900,"x_min":0,"x_max":0,"o":"m 438 796 b 372 861 400 796 372 825 b 438 926 372 897 400 926 b 501 861 474 926 501 897 b 438 796 501 825 474 796 m 793 694 l 793 33 b 447 -293 793 -175 639 -293 b 119 -126 285 -293 169 -228 l 181 -92 b 447 -226 217 -165 294 -226 b 724 33 621 -226 724 -125 l 724 161 b 425 -15 667 54 560 -15 b 65 347 226 -15 65 142 b 425 710 65 553 226 710 b 724 533 560 710 667 640 l 724 694 m 429 51 b 724 347 594 51 724 182 b 429 643 724 513 594 643 b 135 347 264 643 135 513 b 429 51 135 182 264 51 "},"h":{"ha":783,"x_min":0,"x_max":0,"o":"m 425 710 b 694 432 590 710 694 600 l 694 0 l 624 0 l 624 432 b 419 643 624 560 550 643 b 176 367 283 643 176 554 l 176 0 l 107 0 l 107 972 l 176 972 l 176 563 b 425 710 229 665 318 710 "},"ħ":{"ha":801,"x_min":0,"x_max":0,"o":"m 443 710 b 713 432 608 710 713 600 l 713 0 l 643 0 l 643 432 b 438 643 643 560 568 643 b 196 367 303 643 196 554 l 196 0 l 125 0 l 125 808 l 24 808 l 24 867 l 125 867 l 125 972 l 196 972 l 196 867 l 413 867 l 413 808 l 196 808 l 196 565 b 443 710 249 665 338 710 "},"i":{"ha":283,"x_min":0,"x_max":0,"o":"m 142 863 b 86 918 111 863 86 888 b 142 972 86 947 111 972 b 197 918 172 972 197 947 b 142 863 197 888 172 863 m 107 694 l 176 694 l 176 0 l 107 0 "},"ı":{"ha":283,"x_min":0,"x_max":0,"o":"m 107 694 l 176 694 l 176 0 l 107 0 "},"í":{"ha":283,"x_min":0,"x_max":0,"o":"m 172 792 l 265 968 l 181 968 l 104 792 m 107 694 l 176 694 l 176 0 l 107 0 "},"î":{"ha":283,"x_min":0,"x_max":0,"o":"m 300 792 l 221 792 l 142 911 l 63 792 l -17 792 l 100 968 l 183 968 m 107 694 l 176 694 l 176 0 l 107 0 "},"ï":{"ha":283,"x_min":0,"x_max":0,"o":"m 49 801 b -1 851 21 801 -1 824 b 49 903 -1 881 21 903 b 100 851 78 903 100 881 b 49 801 100 824 78 801 m 235 801 b 183 851 206 801 183 824 b 235 903 183 881 206 903 b 285 851 263 903 285 881 b 235 801 285 824 263 801 m 107 694 l 176 694 l 176 0 l 107 0 "},"ì":{"ha":283,"x_min":0,"x_max":0,"o":"m 101 968 l 18 968 l 110 792 l 178 792 m 107 0 l 107 694 l 176 694 l 176 0 "},"ī":{"ha":283,"x_min":0,"x_max":0,"o":"m 13 876 l 271 876 l 271 815 l 13 815 m 107 694 l 176 694 l 176 0 l 107 0 "},"į":{"ha":283,"x_min":0,"x_max":0,"o":"m 142 863 b 86 918 111 863 86 888 b 142 972 86 947 111 972 b 197 918 172 972 197 947 b 142 863 197 888 172 863 m 171 -233 b 231 -221 194 -233 211 -229 l 231 -279 b 156 -293 210 -289 185 -293 b 46 -182 85 -293 46 -242 b 107 8 46 -131 61 -78 l 107 694 l 176 694 l 176 0 b 115 -171 138 -67 115 -118 b 171 -233 115 -206 138 -233 "},"j":{"ha":310,"x_min":0,"x_max":0,"o":"m 168 972 b 224 918 199 972 224 947 b 168 863 224 888 199 863 b 113 918 138 863 113 888 b 168 972 113 947 138 972 m 133 694 l 203 694 l 203 -79 b -28 -293 203 -226 122 -307 l -28 -226 b 133 -79 82 -237 133 -190 "},"k":{"ha":671,"x_min":0,"x_max":0,"o":"m 544 0 l 176 342 l 176 0 l 107 0 l 107 972 l 176 972 l 176 379 l 528 694 l 625 694 l 251 361 l 639 0 "},"ķ":{"ha":671,"x_min":0,"x_max":0,"o":"m 639 0 l 544 0 l 176 342 l 176 0 l 107 0 l 107 972 l 176 972 l 176 379 l 528 694 l 625 694 l 251 361 m 331 -97 l 401 -97 l 367 -333 l 317 -333 "},"l":{"ha":283,"x_min":0,"x_max":0,"o":"m 107 1014 l 176 1014 l 176 0 l 107 0 "},"ĺ":{"ha":283,"x_min":0,"x_max":0,"o":"m 174 1069 l 300 1246 l 217 1246 l 106 1069 m 107 1014 l 176 1014 l 176 0 l 107 0 "},"ľ":{"ha":357,"x_min":0,"x_max":0,"o":"m 107 1014 l 176 1014 l 176 0 l 107 0 m 365 1014 l 296 1014 l 282 778 l 332 778 "},"ļ":{"ha":283,"x_min":0,"x_max":0,"o":"m 107 1014 l 176 1014 l 176 0 l 107 0 m 179 -97 l 108 -97 l 94 -333 l 144 -333 "},"ł":{"ha":333,"x_min":0,"x_max":0,"o":"m 306 561 l 201 490 l 201 0 l 132 0 l 132 442 l 28 371 l 28 439 l 132 510 l 132 1014 l 201 1014 l 201 558 l 306 629 "},"m":{"ha":1190,"x_min":0,"x_max":0,"o":"m 849 710 b 1101 440 996 710 1101 614 l 1101 0 l 1032 0 l 1032 440 b 847 643 1032 572 956 643 b 639 388 731 643 639 565 l 639 0 l 569 0 l 569 440 b 392 643 569 572 499 643 b 176 388 278 643 176 565 l 176 0 l 107 0 l 107 694 l 176 694 l 176 575 b 400 710 228 671 311 710 b 617 568 501 710 581 660 b 849 710 667 665 756 710 "},"n":{"ha":783,"x_min":0,"x_max":0,"o":"m 425 710 b 694 432 590 710 694 600 l 694 0 l 624 0 l 624 432 b 419 643 624 560 550 643 b 176 367 283 643 176 554 l 176 0 l 107 0 l 107 694 l 176 694 l 176 563 b 425 710 229 665 318 710 "},"ń":{"ha":783,"x_min":0,"x_max":0,"o":"m 415 792 l 347 792 l 458 968 l 542 968 m 425 710 b 694 432 590 710 694 600 l 694 0 l 624 0 l 624 432 b 419 643 624 560 550 643 b 176 367 283 643 176 554 l 176 0 l 107 0 l 107 694 l 176 694 l 176 563 b 425 710 229 665 318 710 "},"ň":{"ha":783,"x_min":0,"x_max":0,"o":"m 214 968 l 294 968 l 406 836 l 517 968 l 597 968 l 447 792 l 364 792 m 425 710 b 694 432 590 710 694 600 l 694 0 l 624 0 l 624 432 b 419 643 624 560 550 643 b 176 367 283 643 176 554 l 176 0 l 107 0 l 107 694 l 176 694 l 176 563 b 425 710 229 665 318 710 "},"ņ":{"ha":783,"x_min":0,"x_max":0,"o":"m 425 710 b 694 432 590 710 694 600 l 694 0 l 624 0 l 624 432 b 419 643 624 560 550 643 b 176 367 283 643 176 554 l 176 0 l 107 0 l 107 694 l 176 694 l 176 563 b 425 710 229 665 318 710 m 376 -97 l 447 -97 l 413 -333 l 363 -333 "},"ŋ":{"ha":783,"x_min":0,"x_max":0,"o":"m 425 710 b 694 432 590 710 694 600 l 694 -79 b 464 -293 694 -226 614 -307 l 464 -226 b 624 -79 574 -237 624 -190 l 624 432 b 419 643 624 560 550 643 b 176 367 283 643 176 554 l 176 0 l 107 0 l 107 694 l 176 694 l 176 563 b 425 710 229 665 318 710 "},"ñ":{"ha":783,"x_min":0,"x_max":0,"o":"m 403 849 b 278 810 325 915 278 918 l 217 810 b 408 913 217 967 313 996 b 533 951 486 846 533 844 l 594 951 b 403 849 594 796 499 765 m 425 710 b 694 432 590 710 694 600 l 694 0 l 624 0 l 624 432 b 419 643 624 560 550 643 b 176 367 283 643 176 554 l 176 0 l 107 0 l 107 694 l 176 694 l 176 563 b 425 710 229 665 318 710 "},"o":{"ha":849,"x_min":0,"x_max":0,"o":"m 425 -15 b 60 347 222 -15 60 142 b 425 710 60 553 222 710 b 789 347 626 710 789 553 b 425 -15 789 142 626 -15 m 425 51 b 718 347 590 51 718 182 b 425 643 718 513 590 643 b 131 347 260 643 131 513 b 425 51 131 182 260 51 "},"ó":{"ha":849,"x_min":0,"x_max":0,"o":"m 431 792 l 557 968 l 474 968 l 363 792 m 425 -15 b 60 347 222 -15 60 142 b 425 710 60 553 222 710 b 789 347 626 710 789 553 b 425 -15 789 142 626 -15 m 425 51 b 718 347 590 51 718 182 b 425 643 718 513 590 643 b 131 347 260 643 131 513 b 425 51 131 182 260 51 "},"ô":{"ha":849,"x_min":0,"x_max":0,"o":"m 308 792 l 229 792 l 379 968 l 461 968 l 611 792 l 532 792 l 421 924 m 425 710 b 789 347 626 710 789 553 b 425 -15 789 142 626 -15 b 60 347 222 -15 60 142 b 425 710 60 553 222 710 m 425 51 b 718 347 590 51 718 182 b 425 643 718 513 590 643 b 131 347 260 643 131 513 b 425 51 131 182 260 51 "},"ö":{"ha":849,"x_min":0,"x_max":0,"o":"m 296 801 b 244 851 267 801 244 824 b 296 903 244 881 267 903 b 346 851 324 903 346 881 b 296 801 346 824 324 801 m 546 801 b 494 851 517 801 494 824 b 546 903 494 881 517 903 b 596 851 574 903 596 881 b 546 801 596 824 574 801 m 425 -15 b 60 347 222 -15 60 142 b 425 710 60 553 222 710 b 789 347 626 710 789 553 b 425 -15 789 142 626 -15 m 425 51 b 718 347 590 51 718 182 b 425 643 718 513 590 643 b 131 347 260 643 131 513 b 425 51 131 182 260 51 "},"ò":{"ha":849,"x_min":0,"x_max":0,"o":"m 376 968 l 293 968 l 421 792 l 488 792 m 425 -15 b 60 347 222 -15 60 142 b 425 710 60 553 222 710 b 789 347 626 710 789 553 b 425 -15 789 142 626 -15 m 425 51 b 718 347 590 51 718 182 b 425 643 718 513 590 643 b 131 347 260 643 131 513 b 425 51 131 182 260 51 "},"ő":{"ha":849,"x_min":0,"x_max":0,"o":"m 321 792 l 425 972 l 347 972 l 250 792 m 518 792 l 636 972 l 558 972 l 447 792 m 425 -15 b 60 347 222 -15 60 142 b 425 710 60 553 222 710 b 789 347 626 710 789 553 b 425 -15 789 142 626 -15 m 425 51 b 718 347 590 51 718 182 b 425 643 718 513 590 643 b 131 347 260 643 131 513 b 425 51 131 182 260 51 "},"ō":{"ha":849,"x_min":0,"x_max":0,"o":"m 244 876 l 596 876 l 596 815 l 244 815 m 425 -15 b 60 347 222 -15 60 142 b 425 710 60 553 222 710 b 789 347 626 710 789 553 b 425 -15 789 142 626 -15 m 425 51 b 718 347 590 51 718 182 b 425 643 718 513 590 643 b 131 347 260 643 131 513 b 425 51 131 182 260 51 "},"ø":{"ha":849,"x_min":0,"x_max":0,"o":"m 688 601 b 789 347 750 536 789 447 b 425 -15 789 142 626 -15 b 199 61 339 -15 261 13 l 140 -4 l 97 21 l 163 93 b 60 347 99 157 60 247 b 425 710 60 553 222 710 b 650 633 510 710 588 682 l 708 699 l 753 674 l 688 601 m 131 347 b 208 144 131 268 160 197 l 604 583 b 425 643 556 621 493 643 b 131 347 260 643 131 513 m 425 51 b 718 347 590 51 718 182 b 640 550 718 426 689 497 l 244 111 b 425 51 294 74 357 51 "},"õ":{"ha":849,"x_min":0,"x_max":0,"o":"m 232 810 b 424 913 232 967 328 996 b 549 951 501 846 549 844 l 610 951 b 418 849 610 796 514 765 b 293 810 340 915 293 918 l 232 810 m 425 -15 b 60 347 222 -15 60 142 b 425 710 60 553 222 710 b 789 347 626 710 789 553 b 425 -15 789 142 626 -15 m 425 51 b 718 347 590 51 718 182 b 425 643 718 513 590 643 b 131 347 260 643 131 513 b 425 51 131 182 260 51 "},"œ":{"ha":1474,"x_min":0,"x_max":0,"o":"m 1076 710 b 1418 344 1286 710 1418 535 b 1417 311 1418 333 1418 322 l 788 311 b 1082 51 804 154 924 51 b 1322 178 1196 51 1282 104 l 1383 142 b 1083 -15 1328 47 1219 -15 b 751 206 922 -15 800 72 b 425 -15 700 74 576 -15 b 60 347 217 -15 60 142 b 425 710 60 553 217 710 b 751 488 578 710 700 621 b 1076 710 800 619 919 710 m 425 51 b 717 347 590 51 717 182 b 425 643 717 513 590 643 b 131 347 254 643 131 513 b 425 51 131 182 254 51 m 1075 643 b 788 379 918 643 801 533 l 1346 379 b 1075 643 1331 549 1211 643 "},"p":{"ha":896,"x_min":0,"x_max":0,"o":"m 475 710 b 835 347 674 710 835 553 b 475 -15 835 142 674 -15 b 176 161 340 -15 233 54 l 176 -278 l 107 -278 l 107 694 l 176 694 l 176 533 b 475 710 233 640 340 710 m 471 51 b 765 347 636 51 765 182 b 471 643 765 513 636 643 b 176 347 306 643 176 513 b 471 51 176 182 306 51 "},"þ":{"ha":896,"x_min":0,"x_max":0,"o":"m 475 710 b 835 347 674 710 835 553 b 475 -15 835 142 674 -15 b 176 161 340 -15 233 54 l 176 -278 l 107 -278 l 107 972 l 176 972 l 176 533 b 475 710 233 640 340 710 m 471 51 b 765 347 636 51 765 182 b 471 643 765 513 636 643 b 176 347 306 643 176 513 b 471 51 176 182 306 51 "},"q":{"ha":896,"x_min":0,"x_max":0,"o":"m 789 694 l 789 -278 l 719 -278 l 719 161 b 421 -15 663 54 556 -15 b 61 347 222 -15 61 142 b 421 710 61 553 222 710 b 719 533 556 710 663 640 l 719 694 m 425 51 b 719 347 590 51 719 182 b 425 643 719 513 590 643 b 131 347 260 643 131 513 b 425 51 131 182 260 51 "},"r":{"ha":442,"x_min":0,"x_max":0,"o":"m 176 558 b 408 704 224 668 314 704 l 408 638 b 176 386 289 638 176 564 l 176 0 l 107 0 l 107 694 l 176 694 l 176 558 "},"ŕ":{"ha":442,"x_min":0,"x_max":0,"o":"m 267 792 l 199 792 l 310 968 l 393 968 m 176 558 b 408 704 224 668 314 704 l 408 638 b 176 386 289 638 176 564 l 176 0 l 107 0 l 107 694 l 176 694 l 176 558 "},"ř":{"ha":442,"x_min":0,"x_max":0,"o":"m 65 968 l 146 968 l 257 836 l 368 968 l 449 968 l 299 792 l 215 792 m 176 558 b 408 704 224 668 314 704 l 408 638 b 176 386 289 638 176 564 l 176 0 l 107 0 l 107 694 l 176 694 l 176 558 "},"ŗ":{"ha":442,"x_min":0,"x_max":0,"o":"m 176 558 b 408 704 224 668 314 704 l 408 638 b 176 386 289 638 176 564 l 176 0 l 107 0 l 107 694 l 176 694 l 176 558 m 107 -97 l 178 -97 l 143 -333 l 93 -333 "},"s":{"ha":636,"x_min":0,"x_max":0,"o":"m 154 513 b 575 182 154 326 575 436 b 326 -15 575 68 475 -15 b 63 139 188 -15 96 50 l 122 174 b 326 51 147 99 222 51 b 506 182 424 51 506 94 b 85 513 506 371 85 263 b 321 710 85 622 179 710 b 557 571 433 710 519 656 l 499 538 b 321 643 469 610 397 643 b 154 513 231 643 154 596 "},"ś":{"ha":636,"x_min":0,"x_max":0,"o":"m 328 792 l 260 792 l 371 968 l 454 968 m 154 513 b 575 182 154 326 575 436 b 326 -15 575 68 475 -15 b 63 139 188 -15 96 50 l 122 174 b 326 51 147 99 222 51 b 506 182 424 51 506 94 b 85 513 506 371 85 263 b 321 710 85 622 179 710 b 557 571 433 710 519 656 l 499 538 b 321 643 469 610 397 643 b 154 513 231 643 154 596 "},"š":{"ha":636,"x_min":0,"x_max":0,"o":"m 126 968 l 207 968 l 318 836 l 429 968 l 510 968 l 360 792 l 276 792 m 154 513 b 575 182 154 326 575 436 b 326 -15 575 68 475 -15 b 63 139 188 -15 96 50 l 122 174 b 326 51 147 99 222 51 b 506 182 424 51 506 94 b 85 513 506 371 85 263 b 321 710 85 622 179 710 b 557 571 433 710 519 656 l 499 538 b 321 643 469 610 397 643 b 154 513 231 643 154 596 "},"ş":{"ha":636,"x_min":0,"x_max":0,"o":"m 575 182 b 356 -14 575 75 488 -4 l 356 -78 b 482 -182 426 -86 482 -122 b 211 -293 482 -250 422 -310 l 211 -236 b 421 -182 351 -250 421 -226 b 293 -122 421 -142 375 -122 l 293 -14 b 63 139 172 -4 93 57 l 122 174 b 326 51 147 99 222 51 b 506 182 424 51 506 94 b 85 513 506 371 85 263 b 321 710 85 622 179 710 b 557 571 433 710 519 656 l 499 538 b 321 643 469 610 397 643 b 154 513 231 643 154 596 b 575 182 154 326 575 436 "},"ș":{"ha":636,"x_min":0,"x_max":0,"o":"m 154 513 b 575 182 154 326 575 436 b 326 -15 575 68 475 -15 b 63 139 188 -15 96 50 l 122 174 b 326 51 147 99 222 51 b 506 182 424 51 506 94 b 85 513 506 371 85 263 b 321 710 85 622 179 710 b 557 571 433 710 519 656 l 499 538 b 321 643 469 610 397 643 b 154 513 231 643 154 596 m 306 -97 l 376 -97 l 342 -333 l 292 -333 "},"ß":{"ha":717,"x_min":0,"x_max":0,"o":"m 403 58 b 614 196 532 51 614 97 b 410 547 614 335 410 431 b 536 775 410 633 536 682 b 372 921 536 863 472 921 b 176 717 264 921 176 857 l 176 0 l 107 0 l 107 717 b 372 988 107 889 218 988 b 607 775 524 988 607 890 b 479 547 607 663 479 610 b 685 196 479 454 685 368 b 403 -6 685 68 582 -15 "},"t":{"ha":522,"x_min":0,"x_max":0,"o":"m 256 626 l 256 175 b 463 63 256 53 321 50 l 463 0 b 185 175 281 -28 185 17 l 185 626 l 32 626 l 32 694 l 185 694 l 185 868 l 256 889 l 256 694 l 463 694 l 463 626 "},"ŧ":{"ha":522,"x_min":0,"x_max":0,"o":"m 256 626 l 256 393 l 394 393 l 394 335 l 256 335 l 256 175 b 463 63 256 53 321 50 l 463 0 b 185 175 281 -28 185 17 l 185 335 l 89 335 l 89 393 l 185 393 l 185 626 l 32 626 l 32 694 l 185 694 l 185 868 l 256 889 l 256 694 l 463 694 l 463 626 "},"ť":{"ha":522,"x_min":0,"x_max":0,"o":"m 388 774 l 338 774 l 351 992 l 421 992 m 256 626 l 256 175 b 463 63 256 53 321 50 l 463 0 b 185 175 281 -28 185 17 l 185 626 l 32 626 l 32 694 l 185 694 l 185 868 l 256 889 l 256 694 l 463 694 l 463 626 "},"ţ":{"ha":522,"x_min":0,"x_max":0,"o":"m 256 626 l 256 175 b 463 63 256 53 321 50 l 463 0 b 185 175 281 -28 185 17 l 185 626 l 32 626 l 32 694 l 185 694 l 185 868 l 256 889 l 256 694 l 463 694 l 463 626 m 294 -97 l 365 -97 l 331 -333 l 281 -333 "},"ț":{"ha":522,"x_min":0,"x_max":0,"o":"m 256 626 l 256 175 b 463 63 256 53 321 50 l 463 0 b 185 175 281 -28 185 17 l 185 626 l 32 626 l 32 694 l 185 694 l 185 868 l 256 889 l 256 694 l 463 694 l 463 626 m 294 -97 l 365 -97 l 331 -333 l 281 -333 "},"u":{"ha":783,"x_min":0,"x_max":0,"o":"m 676 694 l 676 0 l 607 0 l 607 132 b 358 -15 554 29 465 -15 b 89 263 193 -15 89 94 l 89 694 l 160 694 l 160 263 b 364 51 160 135 233 51 b 607 328 500 51 607 140 l 607 694 "},"ú":{"ha":783,"x_min":0,"x_max":0,"o":"m 390 792 l 322 792 l 433 968 l 517 968 m 676 694 l 676 0 l 607 0 l 607 132 b 358 -15 554 29 465 -15 b 89 263 193 -15 89 94 l 89 694 l 160 694 l 160 263 b 364 51 160 135 233 51 b 607 328 500 51 607 140 l 607 694 "},"û":{"ha":783,"x_min":0,"x_max":0,"o":"m 268 792 l 189 792 l 339 968 l 421 968 l 571 792 l 492 792 l 381 924 m 676 694 l 676 0 l 607 0 l 607 132 b 358 -15 554 29 465 -15 b 89 263 193 -15 89 94 l 89 694 l 160 694 l 160 263 b 364 51 160 135 233 51 b 607 328 500 51 607 140 l 607 694 "},"ü":{"ha":783,"x_min":0,"x_max":0,"o":"m 256 801 b 204 851 226 801 204 824 b 256 903 204 881 226 903 b 306 851 283 903 306 881 b 256 801 306 824 283 801 m 506 801 b 454 851 476 801 454 824 b 506 903 454 881 476 903 b 556 851 533 903 556 881 b 506 801 556 824 533 801 m 676 694 l 676 0 l 607 0 l 607 132 b 358 -15 554 29 465 -15 b 89 263 193 -15 89 94 l 89 694 l 160 694 l 160 263 b 364 51 160 135 233 51 b 607 328 500 51 607 140 l 607 694 "},"ù":{"ha":783,"x_min":0,"x_max":0,"o":"m 381 792 l 253 968 l 336 968 l 447 792 m 676 694 l 676 0 l 607 0 l 607 132 b 358 -15 554 29 465 -15 b 89 263 193 -15 89 94 l 89 694 l 160 694 l 160 263 b 364 51 160 135 233 51 b 607 328 500 51 607 140 l 607 694 "},"ű":{"ha":783,"x_min":0,"x_max":0,"o":"m 281 792 l 210 792 l 307 972 l 385 972 m 478 792 l 407 792 l 518 972 l 596 972 m 676 694 l 676 0 l 607 0 l 607 132 b 358 -15 554 29 465 -15 b 89 263 193 -15 89 94 l 89 694 l 160 694 l 160 263 b 364 51 160 135 233 51 b 607 328 500 51 607 140 l 607 694 "},"ū":{"ha":783,"x_min":0,"x_max":0,"o":"m 556 815 l 204 815 l 204 876 l 556 876 m 676 694 l 676 0 l 607 0 l 607 132 b 358 -15 554 29 465 -15 b 89 263 193 -15 89 94 l 89 694 l 160 694 l 160 263 b 364 51 160 135 233 51 b 607 328 500 51 607 140 l 607 694 "},"ų":{"ha":783,"x_min":0,"x_max":0,"o":"m 676 0 b 561 -182 606 -64 561 -129 b 617 -233 561 -217 583 -233 b 676 -221 639 -233 657 -229 l 676 -279 b 601 -293 654 -289 631 -293 b 493 -193 532 -293 493 -253 b 607 14 493 -137 528 -71 l 607 132 b 358 -15 554 29 465 -15 b 89 263 193 -15 89 94 l 89 694 l 160 694 l 160 263 b 364 51 160 135 233 51 b 607 328 500 51 607 140 l 607 694 l 676 694 l 676 0 "},"ů":{"ha":783,"x_min":0,"x_max":0,"o":"m 381 768 b 239 903 296 768 239 826 b 381 1038 239 979 296 1038 b 524 903 467 1038 524 979 b 381 768 524 826 467 768 m 381 982 b 299 903 329 982 299 949 b 381 824 299 857 329 824 b 465 903 433 824 465 857 b 381 982 465 949 433 982 m 676 694 l 676 0 l 607 0 l 607 132 b 358 -15 554 29 465 -15 b 89 263 193 -15 89 94 l 89 694 l 160 694 l 160 263 b 364 51 160 135 233 51 b 607 328 500 51 607 140 l 607 694 "},"v":{"ha":710,"x_min":0,"x_max":0,"o":"m 690 694 l 397 0 l 313 0 l 18 694 l 93 694 l 354 72 l 617 694 "},"w":{"ha":1069,"x_min":0,"x_max":0,"o":"m 1024 694 l 804 0 l 728 0 l 535 592 l 342 0 l 265 0 l 46 694 l 119 694 l 304 90 l 499 694 l 571 694 l 765 90 l 950 694 "},"ẃ":{"ha":1069,"x_min":0,"x_max":0,"o":"m 544 792 l 476 792 l 588 968 l 671 968 m 1024 694 l 804 0 l 728 0 l 535 592 l 342 0 l 265 0 l 46 694 l 119 694 l 304 90 l 499 694 l 571 694 l 765 90 l 950 694 "},"ŵ":{"ha":1069,"x_min":0,"x_max":0,"o":"m 422 792 l 343 792 l 493 968 l 575 968 l 725 792 l 646 792 l 535 924 m 1024 694 l 804 0 l 728 0 l 535 592 l 342 0 l 265 0 l 46 694 l 119 694 l 304 90 l 499 694 l 571 694 l 765 90 l 950 694 "},"ẅ":{"ha":1069,"x_min":0,"x_max":0,"o":"m 410 801 b 358 851 381 801 358 824 b 410 903 358 881 381 903 b 460 851 438 903 460 881 b 410 801 460 824 438 801 m 660 801 b 608 851 631 801 608 824 b 660 903 608 881 631 903 b 710 851 688 903 710 881 b 660 801 710 824 688 801 m 1024 694 l 804 0 l 728 0 l 535 592 l 342 0 l 265 0 l 46 694 l 119 694 l 304 90 l 499 694 l 571 694 l 765 90 l 950 694 "},"ẁ":{"ha":1069,"x_min":0,"x_max":0,"o":"m 535 792 l 407 968 l 490 968 l 601 792 m 1024 694 l 804 0 l 728 0 l 535 592 l 342 0 l 265 0 l 46 694 l 119 694 l 304 90 l 499 694 l 571 694 l 765 90 l 950 694 "},"x":{"ha":704,"x_min":0,"x_max":0,"o":"m 586 0 l 351 303 l 117 0 l 32 0 l 310 357 l 49 694 l 133 694 l 351 413 l 571 694 l 654 694 l 394 358 l 671 0 "},"y":{"ha":708,"x_min":0,"x_max":0,"o":"m 690 694 l 390 -64 b 115 -278 338 -197 235 -287 l 115 -212 b 322 -50 208 -221 279 -151 l 338 -12 l 18 694 l 93 694 l 374 76 l 615 694 "},"ý":{"ha":708,"x_min":0,"x_max":0,"o":"m 368 792 l 300 792 l 411 968 l 494 968 m 690 694 l 390 -64 b 115 -278 338 -197 235 -287 l 115 -212 b 322 -50 208 -221 279 -151 l 338 -12 l 18 694 l 93 694 l 374 76 l 615 694 "},"ŷ":{"ha":708,"x_min":0,"x_max":0,"o":"m 246 792 l 167 792 l 317 968 l 399 968 l 549 792 l 469 792 l 358 924 m 690 694 l 390 -64 b 115 -278 338 -197 235 -287 l 115 -212 b 322 -50 208 -221 279 -151 l 338 -12 l 18 694 l 93 694 l 374 76 l 615 694 "},"ÿ":{"ha":708,"x_min":0,"x_max":0,"o":"m 233 801 b 182 851 204 801 182 824 b 233 903 182 881 204 903 b 283 851 261 903 283 881 b 233 801 283 824 261 801 m 483 801 b 432 851 454 801 432 824 b 483 903 432 881 454 903 b 533 851 511 903 533 881 b 483 801 533 824 511 801 m 690 694 l 390 -64 b 115 -278 338 -197 235 -287 l 115 -212 b 322 -50 208 -221 279 -151 l 338 -12 l 18 694 l 93 694 l 374 76 l 615 694 "},"ỳ":{"ha":708,"x_min":0,"x_max":0,"o":"m 358 792 l 231 968 l 314 968 l 425 792 m 690 694 l 390 -64 b 115 -278 338 -197 235 -287 l 115 -212 b 322 -50 208 -221 279 -151 l 338 -12 l 18 694 l 93 694 l 374 76 l 615 694 "},"z":{"ha":663,"x_min":0,"x_max":0,"o":"m 601 68 l 601 0 l 74 0 l 74 46 l 490 626 l 88 626 l 88 694 l 588 694 l 588 649 l 172 68 "},"ź":{"ha":663,"x_min":0,"x_max":0,"o":"m 350 792 l 282 792 l 393 968 l 476 968 m 601 68 l 601 0 l 74 0 l 74 46 l 490 626 l 88 626 l 88 694 l 588 694 l 588 649 l 172 68 "},"ž":{"ha":663,"x_min":0,"x_max":0,"o":"m 149 968 l 229 968 l 340 836 l 451 968 l 532 968 l 382 792 l 299 792 m 601 68 l 601 0 l 74 0 l 74 46 l 490 626 l 88 626 l 88 694 l 588 694 l 588 649 l 172 68 "},"ż":{"ha":663,"x_min":0,"x_max":0,"o":"m 340 796 b 275 861 303 796 275 825 b 340 926 275 897 303 926 b 404 861 376 926 404 897 b 340 796 404 825 376 796 m 601 68 l 601 0 l 74 0 l 74 46 l 490 626 l 88 626 l 88 694 l 588 694 l 588 649 l 172 68 "},"ﬁ":{"ha":708,"x_min":0,"x_max":0,"o":"m 603 0 l 532 0 l 532 626 l 228 626 l 228 0 l 157 0 l 157 626 l 38 626 l 38 694 l 157 694 l 157 732 b 435 988 157 903 253 988 b 569 972 481 988 524 982 l 569 908 b 435 921 524 917 481 921 b 228 732 293 921 228 867 l 228 694 l 603 694 "},"ﬂ":{"ha":708,"x_min":0,"x_max":0,"o":"m 435 988 b 603 972 494 988 544 982 l 603 0 l 532 0 l 532 918 b 435 924 500 922 468 924 b 228 732 293 924 228 867 l 228 694 l 393 694 l 393 626 l 228 626 l 228 0 l 157 0 l 157 626 l 38 626 l 38 694 l 157 694 l 157 732 b 435 988 157 903 253 988 "},"А":{"ha":874,"x_min":0,"x_max":0,"o":"m 681 247 l 193 247 l 99 0 l 21 0 l 399 972 l 476 972 l 853 0 l 775 0 m 654 317 l 438 882 l 221 317 "},"Б":{"ha":813,"x_min":0,"x_max":0,"o":"m 472 574 b 760 288 631 574 760 444 b 472 0 760 129 631 0 l 121 0 l 121 972 l 681 972 l 681 903 l 194 903 l 194 574 l 472 574 m 472 69 b 685 288 589 69 685 167 b 472 504 685 407 589 504 l 194 504 l 194 69 l 472 69 "},"В":{"ha":865,"x_min":0,"x_max":0,"o":"m 639 504 b 806 265 736 467 806 376 b 540 0 806 118 688 0 l 121 0 l 121 972 l 508 972 b 764 717 650 972 764 857 b 639 504 764 622 714 544 m 194 903 l 194 531 l 508 531 b 690 717 608 531 690 614 b 508 903 690 819 608 903 m 540 69 b 732 265 646 69 732 157 b 540 461 732 374 646 461 l 194 461 l 194 69 l 540 69 "},"Г":{"ha":685,"x_min":0,"x_max":0,"o":"m 653 903 l 194 903 l 194 0 l 121 0 l 121 972 l 653 972 "},"Ѓ":{"ha":685,"x_min":0,"x_max":0,"o":"m 393 1068 l 325 1068 l 436 1244 l 519 1244 m 653 903 l 194 903 l 194 0 l 121 0 l 121 972 l 653 972 "},"Ґ":{"ha":685,"x_min":0,"x_max":0,"o":"m 653 1139 l 653 903 l 194 903 l 194 0 l 121 0 l 121 972 l 579 972 l 579 1139 "},"Д":{"ha":958,"x_min":0,"x_max":0,"o":"m 906 69 l 906 -186 l 831 -186 l 831 0 l 100 0 l 100 -186 l 25 -186 l 25 69 l 103 69 b 203 418 157 131 203 229 l 203 972 l 803 972 l 803 69 m 276 417 b 190 69 276 239 238 136 l 729 69 l 729 903 l 276 903 l 276 417 "},"Е":{"ha":740,"x_min":0,"x_max":0,"o":"m 681 69 l 681 0 l 121 0 l 121 972 l 674 972 l 674 903 l 194 903 l 194 525 l 639 525 l 639 456 l 194 456 l 194 69 "},"Ё":{"ha":740,"x_min":0,"x_max":0,"o":"m 272 1079 b 221 1129 243 1079 221 1101 b 272 1181 221 1158 243 1181 b 322 1129 300 1181 322 1158 b 272 1079 322 1101 300 1079 m 522 1079 b 471 1129 493 1079 471 1101 b 522 1181 471 1158 493 1181 b 572 1129 550 1181 572 1158 b 522 1079 572 1101 550 1079 m 681 69 l 681 0 l 121 0 l 121 972 l 674 972 l 674 903 l 194 903 l 194 525 l 639 525 l 639 456 l 194 456 l 194 69 "},"Ж":{"ha":1161,"x_min":0,"x_max":0,"o":"m 1046 0 l 618 482 l 618 0 l 543 0 l 543 482 l 115 0 l 28 0 l 469 500 l 42 972 l 129 972 l 543 518 l 543 972 l 618 972 l 618 518 l 1032 972 l 1119 972 l 692 500 l 1133 0 "},"З":{"ha":774,"x_min":0,"x_max":0,"o":"m 538 503 b 718 258 651 464 718 374 b 390 -15 718 103 593 -15 b 56 199 199 -15 96 81 l 119 233 b 390 54 146 138 224 54 b 643 258 551 54 643 140 b 415 461 643 372 560 461 l 306 461 l 306 531 l 383 531 b 608 724 524 531 608 614 b 385 918 608 835 521 918 b 135 758 243 918 169 847 l 74 793 b 385 988 119 903 215 988 b 682 724 563 988 682 872 b 538 503 682 625 628 544 "},"И":{"ha":954,"x_min":0,"x_max":0,"o":"m 760 836 l 185 0 l 121 0 l 121 972 l 194 972 l 194 136 l 768 972 l 833 972 l 833 0 l 760 0 "},"Й":{"ha":954,"x_min":0,"x_max":0,"o":"m 300 1154 l 651 1154 l 651 1093 l 300 1093 m 760 836 l 185 0 l 121 0 l 121 972 l 194 972 l 194 136 l 768 972 l 833 972 l 833 0 l 760 0 "},"К":{"ha":794,"x_min":0,"x_max":0,"o":"m 682 0 l 194 479 l 194 0 l 121 0 l 121 972 l 194 972 l 194 519 l 668 972 l 767 972 l 275 500 l 781 0 "},"Ќ":{"ha":794,"x_min":0,"x_max":0,"o":"m 407 1068 l 339 1068 l 450 1244 l 533 1244 m 682 0 l 194 479 l 194 0 l 121 0 l 121 972 l 194 972 l 194 519 l 668 972 l 767 972 l 275 500 l 781 0 "},"Л":{"ha":969,"x_min":0,"x_max":0,"o":"m 25 65 b 235 413 153 50 235 129 l 235 972 l 850 972 l 850 0 l 775 0 l 775 903 l 308 903 l 308 411 b 25 0 308 88 204 -15 "},"М":{"ha":1121,"x_min":0,"x_max":0,"o":"m 1000 0 l 926 0 l 926 864 l 567 267 l 554 267 l 194 864 l 194 0 l 121 0 l 121 972 l 213 972 l 560 397 l 907 972 l 1000 972 "},"Н":{"ha":954,"x_min":0,"x_max":0,"o":"m 833 972 l 833 0 l 760 0 l 760 465 l 194 465 l 194 0 l 121 0 l 121 972 l 194 972 l 194 535 l 760 535 l 760 972 "},"О":{"ha":1133,"x_min":0,"x_max":0,"o":"m 567 -15 b 65 486 286 -15 65 208 b 567 988 65 764 286 988 b 1068 486 847 988 1068 764 b 567 -15 1068 208 847 -15 m 567 56 b 994 486 807 56 994 247 b 567 917 994 725 807 917 b 139 486 326 917 139 725 b 567 56 139 247 326 56 "},"П":{"ha":935,"x_min":0,"x_max":0,"o":"m 815 0 l 740 0 l 740 903 l 194 903 l 194 0 l 121 0 l 121 972 l 815 972 "},"Р":{"ha":815,"x_min":0,"x_max":0,"o":"m 451 972 b 754 671 626 972 754 843 b 451 371 754 500 626 371 l 194 371 l 194 0 l 121 0 l 121 972 l 451 972 m 451 440 b 681 671 585 440 681 538 b 451 903 681 806 585 903 l 194 903 l 194 440 l 451 440 "},"С":{"ha":1043,"x_min":0,"x_max":0,"o":"m 571 -15 b 65 486 275 -15 65 208 b 571 988 65 764 275 988 b 988 754 750 988 907 896 l 922 717 b 571 917 858 836 724 917 b 139 486 315 917 139 725 b 571 56 139 247 315 56 b 925 260 725 56 861 138 l 990 222 b 571 -15 911 79 753 -15 "},"Т":{"ha":750,"x_min":0,"x_max":0,"o":"m 718 903 l 413 903 l 413 0 l 338 0 l 338 903 l 32 903 l 32 972 l 718 972 "},"У":{"ha":786,"x_min":0,"x_max":0,"o":"m 768 972 l 444 213 b 149 0 376 53 281 -10 l 149 68 b 371 221 253 57 321 104 l 388 260 l 46 972 l 122 972 l 422 343 l 692 972 "},"Ў":{"ha":786,"x_min":0,"x_max":0,"o":"m 576 1092 l 225 1092 l 225 1153 l 576 1153 m 768 972 l 444 213 b 149 0 376 53 281 -10 l 149 68 b 371 221 253 57 321 104 l 388 260 l 46 972 l 122 972 l 422 343 l 692 972 "},"Ф":{"ha":1117,"x_min":0,"x_max":0,"o":"m 1071 486 b 596 110 1071 247 869 119 l 596 0 l 521 0 l 521 110 b 46 486 247 119 46 247 b 521 863 46 725 247 853 l 521 972 l 596 972 l 596 863 b 1071 486 869 853 1071 725 m 121 486 b 521 178 121 290 282 188 l 521 794 b 121 486 282 785 121 682 m 596 178 b 996 486 835 188 996 290 b 596 794 996 682 835 785 l 596 178 "},"Х":{"ha":796,"x_min":0,"x_max":0,"o":"m 679 0 l 399 433 l 118 0 l 32 0 l 356 500 l 50 972 l 135 972 l 399 565 l 661 972 l 746 972 l 440 500 l 764 0 "},"Ч":{"ha":871,"x_min":0,"x_max":0,"o":"m 750 972 l 750 0 l 676 0 l 676 421 b 403 357 585 376 504 357 b 97 629 210 357 97 475 l 97 972 l 171 972 l 171 629 b 403 426 171 510 254 426 b 676 490 504 426 585 446 l 676 972 "},"Ц":{"ha":958,"x_min":0,"x_max":0,"o":"m 907 69 l 907 -186 l 833 -186 l 833 0 l 121 0 l 121 972 l 194 972 l 194 69 l 732 69 l 732 972 l 806 972 l 806 69 "},"Ш":{"ha":1329,"x_min":0,"x_max":0,"o":"m 1208 972 l 1208 0 l 121 0 l 121 972 l 194 972 l 194 69 l 628 69 l 628 972 l 701 972 l 701 69 l 1135 69 l 1135 972 "},"Щ":{"ha":1361,"x_min":0,"x_max":0,"o":"m 1310 69 l 1310 -186 l 1236 -186 l 1236 0 l 121 0 l 121 972 l 194 972 l 194 69 l 628 69 l 628 972 l 701 972 l 701 69 l 1135 69 l 1135 972 l 1208 972 l 1208 69 "},"Џ":{"ha":935,"x_min":0,"x_max":0,"o":"m 815 972 l 815 0 l 504 0 l 504 -186 l 431 -186 l 431 0 l 121 0 l 121 972 l 194 972 l 194 69 l 740 69 l 740 972 "},"Ь":{"ha":815,"x_min":0,"x_max":0,"o":"m 451 601 b 754 301 626 601 754 472 b 451 0 754 129 626 0 l 121 0 l 121 972 l 194 972 l 194 601 l 451 601 m 451 69 b 681 301 585 69 681 167 b 451 532 681 435 585 532 l 194 532 l 194 69 l 451 69 "},"Ъ":{"ha":963,"x_min":0,"x_max":0,"o":"m 268 903 l 0 903 l 0 972 l 343 972 l 343 601 l 600 601 b 903 301 774 601 903 472 b 600 0 903 129 774 0 l 268 0 m 600 69 b 829 301 733 69 829 167 b 600 532 829 435 733 532 l 343 532 l 343 69 "},"Ы":{"ha":1060,"x_min":0,"x_max":0,"o":"m 121 972 l 194 972 l 194 601 l 451 601 b 754 301 626 601 754 472 b 451 0 754 129 626 0 l 121 0 m 865 972 l 940 972 l 940 0 l 865 0 m 451 69 b 681 301 585 69 681 167 b 451 532 681 435 585 532 l 194 532 l 194 69 "},"Љ":{"ha":1382,"x_min":0,"x_max":0,"o":"m 1035 546 b 1322 274 1193 546 1322 431 b 1035 0 1322 115 1193 0 l 729 0 l 729 903 l 308 903 l 308 411 b 25 -1 308 88 204 -17 l 25 64 b 235 413 153 50 235 129 l 235 972 l 803 972 l 803 546 l 1035 546 m 1035 69 b 1247 274 1151 69 1247 153 b 1035 476 1247 393 1151 476 l 803 476 l 803 69 l 1035 69 "},"Њ":{"ha":1365,"x_min":0,"x_max":0,"o":"m 1018 546 b 1306 274 1176 546 1306 431 b 1018 0 1306 115 1176 0 l 713 0 l 713 476 l 194 476 l 194 0 l 121 0 l 121 972 l 194 972 l 194 546 l 713 546 l 713 972 l 788 972 l 788 546 l 1018 546 m 1018 69 b 1232 274 1136 69 1232 153 b 1018 476 1232 393 1136 476 l 788 476 l 788 69 l 1018 69 "},"Ѕ":{"ha":797,"x_min":0,"x_max":0,"o":"m 418 -15 b 63 214 236 -15 107 76 l 126 251 b 418 56 160 135 258 56 b 663 250 581 56 663 139 b 411 458 663 367 560 411 b 103 726 249 511 103 557 b 397 988 103 886 232 988 b 710 783 557 988 663 896 l 647 749 b 397 917 611 836 536 917 b 178 729 263 917 178 838 b 415 531 178 613 276 576 b 738 251 588 474 738 419 b 418 -15 738 90 611 -15 "},"Є":{"ha":1039,"x_min":0,"x_max":0,"o":"m 986 222 b 567 -15 907 79 747 -15 b 65 486 271 -15 65 208 b 567 988 65 764 271 988 b 983 754 744 988 903 896 l 918 717 b 567 917 853 836 718 917 b 140 521 324 917 156 743 l 689 521 l 689 451 l 140 451 b 567 56 156 229 324 56 b 919 260 721 56 856 138 "},"Э":{"ha":1039,"x_min":0,"x_max":0,"o":"m 472 988 b 974 486 768 988 974 764 b 472 -15 974 208 768 -15 b 53 222 292 -15 132 79 l 119 260 b 472 56 183 138 318 56 b 899 451 715 56 883 229 l 350 451 l 350 521 l 899 521 b 472 917 883 743 715 917 b 121 717 321 917 186 836 l 56 754 b 472 988 136 896 294 988 "},"І":{"ha":315,"x_min":0,"x_max":0,"o":"m 194 972 l 194 0 l 121 0 l 121 972 "},"Ї":{"ha":315,"x_min":0,"x_max":0,"o":"m 32 1079 b -19 1129 3 1079 -19 1101 b 32 1181 -19 1158 3 1181 b 82 1129 60 1181 82 1158 b 32 1079 82 1101 60 1079 m 282 1079 b 231 1129 253 1079 231 1101 b 282 1181 231 1158 253 1181 b 332 1129 310 1181 332 1158 b 282 1079 332 1101 310 1079 m 194 972 l 194 0 l 121 0 l 121 972 "},"Ј":{"ha":768,"x_min":0,"x_max":0,"o":"m 350 -15 b 60 147 217 -15 107 40 l 122 185 b 350 56 157 97 240 56 b 588 267 492 56 588 128 l 588 972 l 663 972 l 663 267 b 350 -15 663 81 522 -15 "},"Ћ":{"ha":979,"x_min":0,"x_max":0,"o":"m 622 654 b 878 399 764 654 878 571 l 878 0 l 804 0 l 804 399 b 622 588 804 528 728 588 b 385 533 532 588 460 567 l 385 0 l 310 0 l 310 903 l 32 903 l 32 972 l 708 972 l 708 903 l 385 903 l 385 600 b 622 654 457 635 526 654 "},"Ю":{"ha":1454,"x_min":0,"x_max":0,"o":"m 888 988 b 1389 486 1168 988 1389 764 b 888 -15 1389 208 1168 -15 b 389 465 613 -15 400 197 l 194 465 l 194 0 l 121 0 l 121 972 l 194 972 l 194 535 l 392 535 b 888 988 415 789 622 988 m 888 56 b 1315 486 1128 56 1315 247 b 888 917 1315 725 1128 917 b 460 486 646 917 460 725 b 888 56 460 247 646 56 "},"Я":{"ha":871,"x_min":0,"x_max":0,"o":"m 750 0 l 676 0 l 676 399 l 410 399 l 135 0 l 51 0 l 328 401 b 79 685 188 419 79 540 b 365 972 79 843 207 972 l 750 972 m 676 468 l 676 903 l 365 903 b 153 685 249 903 153 806 b 365 468 153 565 249 468 "},"Ђ":{"ha":971,"x_min":0,"x_max":0,"o":"m 622 654 b 878 399 764 654 878 571 l 878 206 b 647 -10 878 57 797 -24 l 647 58 b 804 206 757 46 804 93 l 804 399 b 622 588 804 528 728 588 b 385 533 532 588 460 567 l 385 0 l 310 0 l 310 903 l 32 903 l 32 972 l 708 972 l 708 903 l 385 903 l 385 600 b 622 654 457 635 526 654 "},"а":{"ha":896,"x_min":0,"x_max":0,"o":"m 789 694 l 789 0 l 718 0 l 718 157 b 419 -15 660 53 553 -15 b 60 347 222 -15 60 142 b 419 710 60 553 222 710 b 718 538 553 710 660 642 l 718 694 m 425 51 b 718 347 590 51 718 182 b 425 643 718 513 590 643 b 131 347 260 643 131 513 b 425 51 131 182 260 51 "},"б":{"ha":793,"x_min":0,"x_max":0,"o":"m 410 -17 b 60 340 213 -17 60 125 b 319 782 60 557 99 674 b 613 990 471 854 593 872 l 668 958 b 357 726 644 825 499 792 b 142 481 221 665 164 603 b 425 632 211 589 329 632 b 747 307 608 632 747 497 b 410 -17 747 121 606 -17 m 410 53 b 676 307 567 53 676 160 b 417 564 676 456 571 564 b 135 325 282 564 146 472 b 410 53 135 165 251 53 "},"в":{"ha":704,"x_min":0,"x_max":0,"o":"m 535 358 b 657 192 615 332 657 271 b 443 0 657 86 588 0 l 107 0 l 107 694 l 417 694 b 624 513 553 694 624 614 b 535 358 624 444 594 388 m 176 626 l 176 386 l 417 386 b 553 508 506 386 553 431 b 417 626 553 582 504 626 m 443 68 b 588 194 536 68 588 115 b 443 318 588 271 535 318 l 176 318 l 176 68 l 443 68 "},"г":{"ha":558,"x_min":0,"x_max":0,"o":"m 542 626 l 176 626 l 176 0 l 107 0 l 107 694 l 542 694 "},"ѓ":{"ha":558,"x_min":0,"x_max":0,"o":"m 300 792 l 232 792 l 343 968 l 426 968 m 542 626 l 176 626 l 176 0 l 107 0 l 107 694 l 542 694 "},"ґ":{"ha":558,"x_min":0,"x_max":0,"o":"m 542 839 l 542 626 l 176 626 l 176 0 l 107 0 l 107 694 l 471 694 l 471 839 "},"д":{"ha":819,"x_min":0,"x_max":0,"o":"m 774 68 l 774 -186 l 703 -186 l 703 0 l 103 0 l 103 -186 l 32 -186 l 32 68 l 113 68 b 189 347 161 135 189 210 l 189 694 l 676 694 l 676 68 m 606 68 l 606 626 l 258 626 l 258 347 b 199 68 258 224 238 139 "},"е":{"ha":818,"x_min":0,"x_max":0,"o":"m 419 710 b 763 344 631 710 763 535 b 761 311 763 333 761 322 l 132 311 b 426 51 149 154 268 51 b 667 178 540 51 626 104 l 728 142 b 425 -15 671 47 563 -15 b 60 347 211 -15 60 138 b 419 710 60 551 207 710 m 419 643 b 132 379 261 643 146 533 l 690 379 b 419 643 675 549 556 643 "},"ё":{"ha":818,"x_min":0,"x_max":0,"o":"m 286 801 b 235 851 257 801 235 824 b 286 903 235 881 257 903 b 336 851 314 903 336 881 b 286 801 336 824 314 801 m 536 801 b 485 851 507 801 485 824 b 536 903 485 881 507 903 b 586 851 564 903 586 881 b 536 801 586 824 564 801 m 419 710 b 763 344 631 710 763 535 b 761 311 763 333 761 322 l 132 311 b 426 51 149 154 268 51 b 667 178 540 51 626 104 l 728 142 b 425 -15 671 47 563 -15 b 60 347 211 -15 60 138 b 419 710 60 551 207 710 m 419 643 b 132 379 261 643 146 533 l 690 379 b 419 643 675 549 556 643 "},"ж":{"ha":921,"x_min":0,"x_max":0,"o":"m 803 0 l 496 342 l 496 0 l 425 0 l 425 342 l 118 0 l 32 0 l 361 361 l 46 694 l 132 694 l 425 381 l 425 694 l 496 694 l 496 381 l 789 694 l 875 694 l 561 361 l 889 0 "},"з":{"ha":618,"x_min":0,"x_max":0,"o":"m 440 358 b 572 186 525 331 572 265 b 317 -15 572 81 488 -15 b 46 149 161 -15 81 57 l 106 183 b 317 51 132 106 196 51 b 501 190 435 51 501 110 b 349 318 501 265 443 318 l 253 318 l 253 386 l 322 386 b 468 514 413 386 468 436 b 304 643 468 588 403 643 b 117 531 213 643 146 603 l 58 564 b 304 710 96 649 178 710 b 538 517 451 710 538 619 b 440 358 538 449 504 389 "},"и":{"ha":788,"x_min":0,"x_max":0,"o":"m 681 694 l 681 0 l 610 0 l 610 574 l 168 0 l 107 0 l 107 694 l 176 694 l 176 121 l 619 694 "},"й":{"ha":788,"x_min":0,"x_max":0,"o":"m 217 876 l 568 876 l 568 815 l 217 815 m 681 694 l 681 0 l 610 0 l 610 574 l 168 0 l 107 0 l 107 694 l 176 694 l 176 121 l 619 694 "},"к":{"ha":671,"x_min":0,"x_max":0,"o":"m 544 0 l 176 342 l 176 0 l 107 0 l 107 694 l 176 694 l 176 379 l 528 694 l 625 694 l 251 361 l 639 0 "},"ќ":{"ha":671,"x_min":0,"x_max":0,"o":"m 347 792 l 279 792 l 390 968 l 474 968 m 544 0 l 176 342 l 176 0 l 107 0 l 107 694 l 176 694 l 176 379 l 528 694 l 625 694 l 251 361 l 639 0 "},"л":{"ha":778,"x_min":0,"x_max":0,"o":"m 671 0 l 601 0 l 601 626 l 251 626 l 251 292 b 18 0 251 49 149 -10 l 18 65 b 182 292 125 56 182 113 l 182 694 l 671 694 "},"м":{"ha":885,"x_min":0,"x_max":0,"o":"m 778 0 l 707 0 l 707 589 l 447 179 l 438 179 l 176 592 l 176 0 l 107 0 l 107 694 l 189 694 l 442 296 l 694 694 l 778 694 "},"н":{"ha":788,"x_min":0,"x_max":0,"o":"m 681 694 l 681 0 l 610 0 l 610 314 l 176 314 l 176 0 l 107 0 l 107 694 l 176 694 l 176 381 l 610 381 l 610 694 "},"о":{"ha":849,"x_min":0,"x_max":0,"o":"m 425 -15 b 60 347 222 -15 60 142 b 425 710 60 553 222 710 b 789 347 626 710 789 553 b 425 -15 789 142 626 -15 m 425 51 b 718 347 590 51 718 182 b 425 643 718 513 590 643 b 131 347 260 643 131 513 b 425 51 131 182 260 51 "},"п":{"ha":788,"x_min":0,"x_max":0,"o":"m 681 0 l 610 0 l 610 626 l 176 626 l 176 0 l 107 0 l 107 694 l 681 694 "},"р":{"ha":896,"x_min":0,"x_max":0,"o":"m 475 710 b 835 347 674 710 835 553 b 475 -15 835 142 674 -15 b 176 161 340 -15 233 54 l 176 -278 l 107 -278 l 107 694 l 176 694 l 176 533 b 475 710 233 640 340 710 m 471 51 b 765 347 636 51 765 182 b 471 643 765 513 636 643 b 176 347 306 643 176 513 b 471 51 176 182 306 51 "},"с":{"ha":779,"x_min":0,"x_max":0,"o":"m 425 -15 b 60 347 215 -15 60 142 b 425 710 60 553 215 710 b 728 532 561 710 678 640 l 671 499 b 425 643 631 586 536 643 b 131 347 257 643 131 513 b 425 51 131 182 257 51 b 675 196 538 51 629 110 l 733 161 b 425 -15 678 54 561 -15 "},"т":{"ha":611,"x_min":0,"x_max":0,"o":"m 593 626 l 340 626 l 340 0 l 271 0 l 271 626 l 18 626 l 18 694 l 593 694 "},"у":{"ha":708,"x_min":0,"x_max":0,"o":"m 690 694 l 390 -64 b 115 -278 338 -197 235 -287 l 115 -212 b 322 -50 208 -221 279 -151 l 338 -12 l 18 694 l 93 694 l 374 76 l 615 694 "},"ў":{"ha":708,"x_min":0,"x_max":0,"o":"m 533 815 l 182 815 l 182 876 l 533 876 m 690 694 l 390 -64 b 115 -278 338 -197 235 -287 l 115 -212 b 322 -50 208 -221 279 -151 l 338 -12 l 18 694 l 93 694 l 374 76 l 615 694 "},"ф":{"ha":931,"x_min":0,"x_max":0,"o":"m 871 347 b 500 -15 871 151 724 -1 l 500 -278 l 431 -278 l 431 -15 b 60 347 207 -1 60 151 b 431 710 60 543 207 696 l 431 972 l 500 972 l 500 710 b 871 347 724 696 871 543 m 131 347 b 431 53 131 189 246 67 l 431 642 b 131 347 246 628 131 506 m 500 53 b 800 347 685 67 800 189 b 500 642 800 506 685 628 l 500 53 "},"х":{"ha":704,"x_min":0,"x_max":0,"o":"m 586 0 l 351 303 l 117 0 l 32 0 l 310 357 l 49 694 l 133 694 l 351 413 l 571 694 l 654 694 l 394 358 l 671 0 "},"ч":{"ha":746,"x_min":0,"x_max":0,"o":"m 639 694 l 639 0 l 568 0 l 568 272 b 357 226 507 242 432 226 b 79 468 181 226 79 310 l 79 694 l 149 694 l 149 468 b 354 293 149 347 222 293 b 568 338 428 293 503 308 l 568 694 "},"ц":{"ha":824,"x_min":0,"x_max":0,"o":"m 778 68 l 778 -186 l 707 -186 l 707 0 l 107 0 l 107 694 l 176 694 l 176 68 l 596 68 l 596 694 l 667 694 l 667 68 "},"ш":{"ha":1135,"x_min":0,"x_max":0,"o":"m 1028 694 l 1028 0 l 107 0 l 107 694 l 176 694 l 176 68 l 532 68 l 532 694 l 603 694 l 603 68 l 957 68 l 957 694 "},"щ":{"ha":1171,"x_min":0,"x_max":0,"o":"m 1125 68 l 1125 -186 l 1054 -186 l 1054 0 l 107 0 l 107 694 l 176 694 l 176 68 l 532 68 l 532 694 l 603 694 l 603 68 l 957 68 l 957 694 l 1028 694 l 1028 68 "},"џ":{"ha":788,"x_min":0,"x_max":0,"o":"m 681 694 l 681 0 l 429 0 l 429 -186 l 358 -186 l 358 0 l 107 0 l 107 694 l 176 694 l 176 68 l 610 68 l 610 694 "},"ь":{"ha":657,"x_min":0,"x_max":0,"o":"m 382 425 b 611 213 506 425 611 340 b 382 0 611 85 506 0 l 107 0 l 107 694 l 176 694 l 176 425 l 382 425 m 382 68 b 540 213 469 68 540 125 b 382 357 540 301 469 357 l 176 357 l 176 68 l 382 68 "},"ъ":{"ha":750,"x_min":0,"x_max":0,"o":"m 474 425 b 704 213 599 425 704 340 b 474 0 704 85 599 0 l 199 0 l 199 626 l 0 626 l 0 694 l 269 694 l 269 425 l 474 425 m 474 68 b 633 213 563 68 633 125 b 474 357 633 301 563 357 l 269 357 l 269 68 l 474 68 "},"ы":{"ha":894,"x_min":0,"x_max":0,"o":"m 382 425 b 611 213 506 425 611 340 b 382 0 611 85 506 0 l 107 0 l 107 694 l 176 694 l 176 425 l 382 425 m 788 694 l 788 0 l 718 0 l 718 694 m 382 68 b 540 213 469 68 540 125 b 382 357 540 301 469 357 l 176 357 l 176 68 l 382 68 "},"љ":{"ha":1115,"x_min":0,"x_max":0,"o":"m 853 397 b 1068 199 969 397 1068 326 b 853 0 1068 71 969 0 l 588 0 l 588 626 l 251 626 l 251 292 b 18 0 251 49 149 -10 l 18 65 b 182 292 125 56 182 113 l 182 694 l 657 694 l 657 397 l 853 397 m 853 68 b 999 199 933 68 999 111 b 853 329 999 288 933 329 l 657 329 l 657 68 l 853 68 "},"њ":{"ha":1106,"x_min":0,"x_max":0,"o":"m 843 397 b 1060 199 961 397 1060 326 b 843 0 1060 71 961 0 l 578 0 l 578 329 l 172 329 l 172 0 l 101 0 l 101 694 l 172 694 l 172 397 l 578 397 l 578 694 l 649 694 l 649 397 l 843 397 m 843 68 b 989 199 925 68 989 111 b 843 329 989 288 925 329 l 649 329 l 649 68 l 843 68 "},"ѕ":{"ha":636,"x_min":0,"x_max":0,"o":"m 154 513 b 575 182 154 326 575 436 b 326 -15 575 68 475 -15 b 63 139 188 -15 96 50 l 122 174 b 326 51 147 99 222 51 b 506 182 424 51 506 94 b 85 513 506 371 85 263 b 321 710 85 622 179 710 b 557 571 433 710 519 656 l 499 538 b 321 643 469 610 397 643 b 154 513 231 643 154 596 "},"є":{"ha":763,"x_min":0,"x_max":0,"o":"m 725 163 b 413 -15 676 54 563 -15 b 60 347 199 -15 60 142 b 411 710 60 553 197 710 b 722 532 553 710 668 640 l 661 497 b 411 643 619 586 528 643 b 132 381 250 643 146 529 l 492 381 l 492 314 l 132 314 b 413 51 146 165 251 51 b 665 199 539 51 629 111 "},"э":{"ha":763,"x_min":0,"x_max":0,"o":"m 351 710 b 703 347 565 710 703 553 b 350 -15 703 142 564 -15 b 38 163 200 -15 86 54 l 97 199 b 350 51 133 111 224 51 b 631 314 511 51 617 165 l 271 314 l 271 381 l 631 381 b 351 643 617 529 513 643 b 101 497 235 643 143 586 l 40 532 b 351 710 94 640 210 710 "},"і":{"ha":283,"x_min":0,"x_max":0,"o":"m 142 863 b 86 918 111 863 86 888 b 142 972 86 947 111 972 b 197 918 172 972 197 947 b 142 863 197 888 172 863 m 107 694 l 176 694 l 176 0 l 107 0 "},"ї":{"ha":283,"x_min":0,"x_max":0,"o":"m 17 801 b -35 851 -12 801 -35 824 b 17 903 -35 881 -12 903 b 67 851 44 903 67 881 b 17 801 67 824 44 801 m 267 801 b 215 851 238 801 215 824 b 267 903 215 881 238 903 b 317 851 294 903 317 881 b 267 801 317 824 294 801 m 107 694 l 176 694 l 176 0 l 107 0 "},"ј":{"ha":310,"x_min":0,"x_max":0,"o":"m 168 972 b 224 918 199 972 224 947 b 168 863 224 888 199 863 b 113 918 138 863 113 888 b 168 972 113 947 138 972 m 133 694 l 203 694 l 203 -79 b -28 -293 203 -226 122 -307 l -28 -226 b 133 -79 82 -237 133 -190 "},"ћ":{"ha":801,"x_min":0,"x_max":0,"o":"m 443 710 b 713 432 608 710 713 600 l 713 0 l 643 0 l 643 432 b 438 643 643 560 568 643 b 196 367 303 643 196 554 l 196 0 l 125 0 l 125 808 l 24 808 l 24 867 l 125 867 l 125 972 l 196 972 l 196 867 l 413 867 l 413 808 l 196 808 l 196 565 b 443 710 249 665 338 710 "},"ю":{"ha":1115,"x_min":0,"x_max":0,"o":"m 692 710 b 1056 347 893 710 1056 553 b 692 -15 1056 142 893 -15 b 332 314 500 -15 349 125 l 176 314 l 176 0 l 107 0 l 107 694 l 176 694 l 176 381 l 332 381 b 692 710 349 569 500 710 m 692 51 b 985 347 857 51 985 182 b 692 643 985 513 857 643 b 397 347 526 643 397 513 b 692 51 397 182 526 51 "},"я":{"ha":694,"x_min":0,"x_max":0,"o":"m 588 0 l 518 0 l 518 271 l 368 271 l 150 0 l 60 0 l 282 272 b 83 482 172 285 83 365 b 313 694 83 610 189 694 l 588 694 m 518 338 l 518 626 l 313 626 b 154 482 225 626 154 569 b 313 338 154 393 225 338 "},"ђ":{"ha":801,"x_min":0,"x_max":0,"o":"m 443 710 b 713 432 608 710 713 600 l 713 -79 b 482 -293 713 -226 632 -307 l 482 -226 b 643 -79 592 -237 643 -190 l 643 432 b 438 643 643 560 568 643 b 196 367 303 643 196 554 l 196 0 l 125 0 l 125 808 l 24 808 l 24 867 l 125 867 l 125 972 l 196 972 l 196 867 l 413 867 l 413 808 l 196 808 l 196 565 b 443 710 249 665 338 710 "},"Δ":{"ha":869,"x_min":0,"x_max":0,"o":"m 851 0 l 18 0 l 396 972 l 474 972 m 746 69 l 435 882 l 124 69 "},"Ω":{"ha":1133,"x_min":0,"x_max":0,"o":"m 1068 486 b 828 69 1068 304 972 150 l 1053 69 l 1053 0 l 676 0 l 676 69 b 994 486 861 117 994 285 b 567 917 994 725 807 917 b 139 486 326 917 139 725 b 457 69 139 285 271 117 l 457 0 l 81 0 l 81 69 l 306 69 b 65 486 161 150 65 304 b 567 988 65 764 286 988 b 1068 486 847 988 1068 764 "},"π":{"ha":903,"x_min":0,"x_max":0,"o":"m 857 626 l 742 626 l 742 0 l 671 0 l 671 626 l 238 626 l 238 0 l 167 0 l 167 626 l 46 626 l 46 694 l 857 694 "},"⁄":{"ha":315,"x_min":0,"x_max":0,"o":"m -157 0 l 407 972 l 472 972 l -93 0 "},"½":{"ha":1132,"x_min":0,"x_max":0,"o":"m 175 417 l 175 897 l 36 851 l 18 910 l 189 972 l 242 972 l 242 417 m 814 972 l 249 0 l 185 0 l 749 972 m 1086 64 l 1086 0 l 704 0 l 704 54 l 947 281 b 1008 406 988 317 1008 364 b 893 508 1008 463 967 508 b 761 417 825 508 782 472 l 706 447 b 893 572 735 524 800 572 b 1075 406 1006 572 1075 497 b 993 238 1075 344 1049 289 l 803 64 "},"¼":{"ha":1151,"x_min":0,"x_max":0,"o":"m 175 417 l 175 897 l 36 851 l 18 910 l 189 972 l 242 972 l 242 417 m 814 972 l 249 0 l 185 0 l 749 972 m 1118 111 l 1043 111 l 1043 0 l 976 0 l 976 111 l 681 111 l 681 174 l 889 556 l 961 556 l 753 174 l 976 174 l 976 318 l 1043 318 l 1043 174 l 1118 174 "},"¾":{"ha":1294,"x_min":0,"x_max":0,"o":"m 428 576 b 231 400 428 475 353 400 b 39 513 135 400 71 443 l 94 544 b 231 464 117 494 158 464 b 361 576 318 464 361 513 b 231 690 361 640 315 690 l 225 690 l 193 739 l 328 908 l 56 908 l 56 972 l 406 972 l 406 908 l 272 743 b 428 576 371 729 428 664 m 957 972 l 392 0 l 328 0 l 892 972 m 1261 111 l 1186 111 l 1186 0 l 1119 0 l 1119 111 l 824 111 l 824 174 l 1032 556 l 1104 556 l 896 174 l 1119 174 l 1119 318 l 1186 318 l 1186 174 l 1261 174 "},"⅛":{"ha":1132,"x_min":0,"x_max":0,"o":"m 175 417 l 175 897 l 36 851 l 18 910 l 189 972 l 242 972 l 242 417 m 814 972 l 249 0 l 185 0 l 749 972 m 993 292 b 1090 144 1051 265 1090 213 b 894 -17 1090 46 1010 -17 b 697 144 779 -17 697 46 b 796 292 697 213 736 265 b 715 417 749 317 715 360 b 894 572 715 517 797 572 b 1072 417 990 572 1072 517 b 993 292 1072 360 1039 317 m 894 510 b 782 417 826 510 782 475 b 894 322 782 360 828 322 b 1006 417 960 322 1006 360 b 894 510 1006 475 961 510 m 894 47 b 1024 153 975 47 1024 89 b 894 258 1024 218 969 258 b 764 153 815 258 764 218 b 894 47 764 89 814 47 "},"⅜":{"ha":1275,"x_min":0,"x_max":0,"o":"m 428 576 b 231 400 428 475 353 400 b 39 513 135 400 71 443 l 94 544 b 231 464 117 494 158 464 b 361 576 318 464 361 513 b 231 690 361 640 315 690 l 225 690 l 193 739 l 328 908 l 56 908 l 56 972 l 406 972 l 406 908 l 272 743 b 428 576 371 729 428 664 m 957 972 l 392 0 l 328 0 l 892 972 m 1136 292 b 1233 144 1194 265 1233 213 b 1038 -17 1233 46 1153 -17 b 840 144 922 -17 840 46 b 939 292 840 213 879 265 b 858 417 892 317 858 360 b 1038 572 858 517 940 572 b 1215 417 1133 572 1215 517 b 1136 292 1215 360 1182 317 m 1038 510 b 925 417 969 510 925 475 b 1038 322 925 360 971 322 b 1149 417 1103 322 1149 360 b 1038 510 1149 475 1104 510 m 1038 47 b 1167 153 1118 47 1167 89 b 1038 258 1167 218 1113 258 b 907 153 958 258 907 218 b 1038 47 907 89 957 47 "},"⅝":{"ha":1261,"x_min":0,"x_max":0,"o":"m 418 576 b 224 400 418 472 344 400 b 35 511 131 400 67 442 l 92 543 b 224 464 114 493 158 464 b 351 576 303 464 351 508 b 224 693 351 649 303 693 l 60 693 l 81 972 l 396 972 l 396 910 l 138 910 l 128 757 l 225 757 b 418 576 340 757 418 685 m 943 972 l 378 0 l 314 0 l 878 972 m 1122 292 b 1219 144 1181 265 1219 213 b 1024 -17 1219 46 1139 -17 b 826 144 908 -17 826 46 b 925 292 826 213 865 265 b 844 417 878 317 844 360 b 1024 572 844 517 926 572 b 1201 417 1119 572 1201 517 b 1122 292 1201 360 1168 317 m 1024 510 b 911 417 956 510 911 475 b 1024 322 911 360 957 322 b 1135 417 1089 322 1135 360 b 1024 510 1135 475 1090 510 m 1024 47 b 1153 153 1104 47 1153 89 b 1024 258 1153 218 1099 258 b 893 153 944 258 893 218 b 1024 47 893 89 943 47 "},"⅞":{"ha":1219,"x_min":0,"x_max":0,"o":"m 393 918 l 178 417 l 107 417 l 319 908 l 24 908 l 24 972 l 393 972 m 901 972 l 336 0 l 272 0 l 836 972 m 1081 292 b 1178 144 1139 265 1178 213 b 982 -17 1178 46 1097 -17 b 785 144 867 -17 785 46 b 883 292 785 213 824 265 b 803 417 836 317 803 360 b 982 572 803 517 885 572 b 1160 417 1078 572 1160 517 b 1081 292 1160 360 1126 317 m 982 510 b 869 417 914 510 869 475 b 982 322 869 360 915 322 b 1093 417 1047 322 1093 360 b 982 510 1093 475 1049 510 m 982 47 b 1111 153 1063 47 1111 89 b 982 258 1111 218 1057 258 b 851 153 903 258 851 218 b 982 47 851 89 901 47 "},"*":{"ha":538,"x_min":0,"x_max":0,"o":"m 449 789 l 317 792 l 390 682 l 336 650 l 268 767 l 201 650 l 146 682 l 219 792 l 88 789 l 88 849 l 219 846 l 146 956 l 201 988 l 268 872 l 336 988 l 390 956 l 317 846 l 449 849 "},"\\":{"ha":732,"x_min":0,"x_max":0,"o":"m 60 1111 l 115 1111 l 671 -139 l 615 -139 "},"·":{"ha":296,"x_min":0,"x_max":0,"o":"m 149 417 b 86 479 113 417 86 444 b 149 542 86 514 113 542 b 211 479 183 542 211 514 b 149 417 211 444 183 417 "},"•":{"ha":389,"x_min":0,"x_max":0,"o":"m 196 365 b 74 488 128 365 74 419 b 196 607 74 554 128 607 b 315 488 263 607 315 554 b 196 365 315 419 263 365 "},":":{"ha":296,"x_min":0,"x_max":0,"o":"m 149 569 b 86 632 113 569 86 597 b 149 694 86 667 113 694 b 211 632 183 694 211 667 b 149 569 211 597 183 569 m 149 -14 b 86 49 113 -14 86 14 b 149 111 86 83 113 111 b 211 49 183 111 211 83 b 149 -14 211 14 183 -14 "},",":{"ha":310,"x_min":0,"x_max":0,"o":"m 150 -194 l 86 -194 l 139 94 l 225 94 "},"…":{"ha":824,"x_min":0,"x_max":0,"o":"m 149 -14 b 86 49 113 -14 86 14 b 149 111 86 83 113 111 b 211 49 183 111 211 83 b 149 -14 211 14 183 -14 m 413 -14 b 350 49 376 -14 350 14 b 413 111 350 83 376 111 b 475 49 447 111 475 83 b 413 -14 475 14 447 -14 m 676 -14 b 614 49 640 -14 614 14 b 676 111 614 83 640 111 b 739 49 711 111 739 83 b 676 -14 739 14 711 -14 "},"!":{"ha":306,"x_min":0,"x_max":0,"o":"m 111 694 l 111 972 l 194 972 l 194 694 l 181 250 l 125 250 m 153 -14 b 90 49 118 -14 90 14 b 153 111 90 83 118 111 b 215 49 188 111 215 83 b 153 -14 215 14 188 -14 "},"¡":{"ha":306,"x_min":0,"x_max":0,"o":"m 153 708 b 215 646 188 708 215 681 b 153 583 215 611 188 583 b 90 646 118 583 90 611 b 153 708 90 681 118 708 m 181 444 l 194 0 l 194 -278 l 111 -278 l 111 0 l 125 444 "},"#":{"ha":838,"x_min":0,"x_max":0,"o":"m 611 579 l 581 393 l 747 393 l 736 329 l 569 329 l 526 69 l 457 69 l 500 329 l 286 329 l 243 69 l 174 69 l 217 329 l 51 329 l 61 393 l 228 393 l 258 579 l 92 579 l 101 643 l 269 643 l 313 903 l 382 903 l 339 643 l 553 643 l 596 903 l 665 903 l 622 643 l 788 643 l 776 579 m 542 579 l 328 579 l 297 393 l 511 393 "},".":{"ha":296,"x_min":0,"x_max":0,"o":"m 149 -14 b 86 49 113 -14 86 14 b 149 111 86 83 113 111 b 211 49 183 111 211 83 b 149 -14 211 14 183 -14 "},"?":{"ha":736,"x_min":0,"x_max":0,"o":"m 306 250 b 574 738 306 494 574 553 b 363 917 574 854 489 917 b 136 769 254 917 167 867 l 74 804 b 363 988 117 926 235 988 b 649 738 518 988 649 901 b 379 250 649 528 379 463 l 306 250 m 343 -14 b 281 49 307 -14 281 14 b 343 111 281 83 307 111 b 406 49 378 111 406 83 b 343 -14 406 14 378 -14 "},"¿":{"ha":736,"x_min":0,"x_max":0,"o":"m 393 708 b 456 646 429 708 456 681 b 393 583 456 611 429 583 b 331 646 358 583 331 611 b 393 708 331 681 358 708 m 431 444 b 163 -43 431 200 163 142 b 374 -222 163 -160 247 -222 b 600 -75 482 -222 569 -172 l 663 -110 b 374 -293 619 -232 501 -293 b 88 -43 218 -293 88 -207 b 357 444 88 167 357 232 l 431 444 "},"\"":{"ha":407,"x_min":0,"x_max":0,"o":"m 74 972 l 149 972 l 139 713 l 83 713 m 260 972 l 333 972 l 324 713 l 268 713 "},"'":{"ha":218,"x_min":0,"x_max":0,"o":"m 74 972 l 149 972 l 139 713 l 83 713 "},";":{"ha":319,"x_min":0,"x_max":0,"o":"m 172 569 b 110 632 136 569 110 597 b 172 694 110 667 136 694 b 235 632 207 694 235 667 b 172 569 235 597 207 569 m 150 -194 l 86 -194 l 139 94 l 225 94 "},"/":{"ha":732,"x_min":0,"x_max":0,"o":"m 60 -139 l 615 1111 l 671 1111 l 115 -139 "},"_":{"ha":704,"x_min":0,"x_max":0,"o":"m 56 -118 l 649 -118 l 649 -185 l 56 -185 "},"{":{"ha":485,"x_min":0,"x_max":0,"o":"m 457 -150 b 225 56 307 -164 225 -93 l 225 315 b 74 454 225 428 175 454 l 74 521 b 225 660 175 521 225 547 l 225 919 b 457 1125 225 1068 307 1139 l 457 1057 b 296 919 347 1069 296 1032 l 296 660 b 185 488 296 557 257 506 b 296 315 257 469 296 418 l 296 56 b 457 -83 296 -57 347 -94 l 457 -150 "},"}":{"ha":485,"x_min":0,"x_max":0,"o":"m 28 -83 b 189 56 138 -94 189 -57 l 189 315 b 300 488 189 418 228 469 b 189 660 228 506 189 557 l 189 919 b 28 1057 189 1032 138 1069 l 28 1125 b 260 919 178 1139 260 1068 l 260 660 b 411 521 260 547 310 521 l 411 454 b 260 315 310 454 260 428 l 260 56 b 28 -150 260 -93 178 -164 "},"[":{"ha":385,"x_min":0,"x_max":0,"o":"m 158 1043 l 158 -71 l 357 -71 l 357 -139 l 88 -139 l 88 1111 l 357 1111 l 357 1043 "},"]":{"ha":385,"x_min":0,"x_max":0,"o":"m 297 -139 l 28 -139 l 28 -71 l 226 -71 l 226 1043 l 28 1043 l 28 1111 l 297 1111 "},"(":{"ha":363,"x_min":0,"x_max":0,"o":"m 236 -139 b 83 486 139 56 83 264 b 236 1111 83 708 139 917 l 307 1111 b 154 486 210 917 154 708 b 307 -139 154 264 210 56 l 236 -139 "},")":{"ha":363,"x_min":0,"x_max":0,"o":"m 56 -139 b 208 486 153 56 208 264 b 56 1111 208 708 153 917 l 126 1111 b 279 486 224 917 279 708 b 126 -139 279 264 224 56 "},"—":{"ha":1074,"x_min":0,"x_max":0,"o":"m 121 463 l 954 463 l 954 396 l 121 396 "},"–":{"ha":935,"x_min":0,"x_max":0,"o":"m 121 463 l 815 463 l 815 396 l 121 396 "},"-":{"ha":740,"x_min":0,"x_max":0,"o":"m 121 463 l 621 463 l 621 396 l 121 396 "},"«":{"ha":651,"x_min":0,"x_max":0,"o":"m 197 429 l 346 189 l 260 189 l 111 429 l 260 669 l 346 669 m 393 429 l 540 189 l 454 189 l 307 429 l 454 669 l 540 669 "},"»":{"ha":651,"x_min":0,"x_max":0,"o":"m 344 429 l 197 189 l 111 189 l 258 429 l 111 669 l 197 669 m 540 429 l 392 189 l 306 189 l 454 429 l 306 669 l 392 669 "},"‹":{"ha":457,"x_min":0,"x_max":0,"o":"m 197 429 l 346 189 l 260 189 l 111 429 l 260 669 l 346 669 "},"›":{"ha":457,"x_min":0,"x_max":0,"o":"m 346 429 l 197 189 l 111 189 l 260 429 l 111 669 l 197 669 "},"„":{"ha":486,"x_min":0,"x_max":0,"o":"m 150 -194 l 86 -194 l 139 94 l 225 94 m 326 -194 l 263 -194 l 315 94 l 401 94 "},"“":{"ha":486,"x_min":0,"x_max":0,"o":"m 160 972 l 224 972 l 171 683 l 85 683 m 336 972 l 400 972 l 347 683 l 261 683 "},"”":{"ha":486,"x_min":0,"x_max":0,"o":"m 150 683 l 86 683 l 139 972 l 225 972 m 326 683 l 263 683 l 315 972 l 401 972 "},"‘":{"ha":310,"x_min":0,"x_max":0,"o":"m 160 972 l 224 972 l 171 683 l 85 683 "},"’":{"ha":310,"x_min":0,"x_max":0,"o":"m 150 683 l 86 683 l 139 972 l 225 972 "},"‚":{"ha":310,"x_min":0,"x_max":0,"o":"m 150 -194 l 86 -194 l 139 94 l 225 94 "}," ":{"ha":371,"x_min":0,"x_max":0,"o":""},"¢":{"ha":779,"x_min":0,"x_max":0,"o":"m 733 300 b 425 124 678 193 561 124 b 322 138 389 124 356 128 l 278 0 l 222 0 l 272 154 b 60 486 144 210 60 335 b 425 849 60 692 215 849 b 499 842 450 849 475 846 l 542 972 l 597 972 l 550 828 b 728 671 629 800 694 744 l 671 638 b 529 764 644 696 593 740 l 344 201 b 425 190 369 194 397 190 b 675 335 538 190 629 249 m 131 486 b 294 219 131 368 196 267 l 478 778 b 425 782 461 781 443 782 b 131 486 257 782 131 651 "},"¤":{"ha":768,"x_min":0,"x_max":0,"o":"m 679 486 b 611 296 679 413 653 347 l 707 199 l 671 163 l 574 260 b 383 193 522 218 456 193 b 194 260 311 193 246 218 l 96 163 l 60 199 l 158 296 b 89 486 115 346 89 413 b 158 676 89 560 115 626 l 60 774 l 96 810 l 194 713 b 383 779 246 754 311 779 b 574 713 456 779 522 754 l 671 810 l 707 774 l 611 676 b 679 486 653 625 679 560 m 160 486 b 383 260 160 360 257 260 b 608 486 510 260 608 360 b 383 713 608 613 510 713 b 160 486 257 713 160 613 "},"$":{"ha":764,"x_min":0,"x_max":0,"o":"m 704 249 b 435 -14 704 103 593 1 l 435 -139 l 369 -139 l 369 -15 b 60 182 217 -8 103 63 l 124 218 b 369 56 156 121 240 63 l 369 468 b 106 735 228 518 106 569 b 369 986 106 879 222 976 l 369 1111 l 435 1111 l 435 986 b 681 811 544 974 638 915 l 618 776 b 435 914 586 856 524 903 l 435 519 b 704 249 576 469 704 414 m 179 735 b 369 543 179 625 260 583 l 369 915 b 179 735 256 906 179 832 m 435 58 b 629 249 560 72 629 149 b 435 446 629 360 549 406 l 435 58 "},"€":{"ha":836,"x_min":0,"x_max":0,"o":"m 510 56 b 733 207 614 56 694 110 l 794 172 b 510 -15 747 54 646 -15 b 146 372 307 -15 176 136 l 32 372 l 32 435 l 140 435 b 139 486 139 451 139 468 b 140 546 139 507 139 526 l 32 546 l 32 607 l 147 607 b 510 988 179 839 310 988 b 794 801 646 988 747 918 l 733 767 b 510 917 694 863 614 917 b 221 607 358 917 251 804 l 593 607 l 593 546 l 214 546 b 213 486 213 526 213 507 b 214 435 213 468 213 451 l 593 435 l 593 372 l 219 372 b 510 56 249 171 356 56 "},"ƒ":{"ha":606,"x_min":0,"x_max":0,"o":"m 346 801 b 606 976 371 957 479 1017 l 606 907 b 415 800 508 947 433 901 l 368 521 l 535 521 l 535 453 l 357 453 l 261 -107 b 0 -282 235 -262 126 -322 l 0 -212 b 190 -106 99 -253 174 -207 l 286 453 l 126 453 l 126 521 l 297 521 l 346 801 "},"₽":{"ha":801,"x_min":0,"x_max":0,"o":"m 218 399 l 218 254 l 588 254 l 588 193 l 218 193 l 218 0 l 143 0 l 143 193 l 18 193 l 18 254 l 143 254 l 143 399 l 18 399 l 18 468 l 143 468 l 143 972 l 476 972 b 764 685 635 972 764 843 b 476 399 764 528 635 399 m 218 468 l 476 468 b 690 685 594 468 690 565 b 476 903 690 806 594 903 l 218 903 "},"£":{"ha":819,"x_min":0,"x_max":0,"o":"m 796 71 l 796 0 l 60 0 l 60 71 l 199 71 l 199 407 l 88 407 l 88 472 l 199 472 l 199 708 b 478 988 199 892 333 988 b 738 807 606 988 693 919 l 678 772 b 478 917 644 865 579 917 b 272 708 364 917 272 844 l 272 472 l 607 472 l 607 407 l 272 407 l 272 71 "},"¥":{"ha":792,"x_min":0,"x_max":0,"o":"m 489 478 l 690 478 l 690 415 l 451 415 l 442 400 l 442 308 l 690 308 l 690 247 l 442 247 l 442 0 l 368 0 l 368 247 l 103 247 l 103 308 l 368 308 l 368 400 l 358 415 l 103 415 l 103 478 l 321 478 l 14 972 l 97 972 l 401 478 l 408 478 l 713 972 l 796 972 "},"+":{"ha":740,"x_min":0,"x_max":0,"o":"m 653 453 l 404 453 l 404 204 l 336 204 l 336 453 l 88 453 l 88 519 l 336 519 l 336 768 l 404 768 l 404 519 l 653 519 "},"−":{"ha":750,"x_min":0,"x_max":0,"o":"m 88 519 l 663 519 l 663 453 l 88 453 "},"×":{"ha":651,"x_min":0,"x_max":0,"o":"m 372 486 l 572 286 l 524 242 l 325 440 l 126 242 l 79 286 l 279 486 l 79 686 l 126 731 l 325 532 l 524 731 l 572 686 "},"÷":{"ha":806,"x_min":0,"x_max":0,"o":"m 403 683 b 340 746 368 683 340 711 b 403 808 340 781 368 808 b 465 746 438 808 465 781 b 403 683 465 711 438 683 m 88 519 l 718 519 l 718 453 l 88 453 m 403 164 b 340 226 368 164 340 192 b 403 289 340 261 368 289 b 465 226 438 289 465 261 b 403 164 465 192 438 164 "},"=":{"ha":746,"x_min":0,"x_max":0,"o":"m 88 658 l 657 658 l 657 592 l 88 592 m 88 381 l 657 381 l 657 314 l 88 314 "},"≠":{"ha":746,"x_min":0,"x_max":0,"o":"m 450 592 l 356 381 l 657 381 l 657 314 l 325 314 l 228 100 l 172 100 l 269 314 l 88 314 l 88 381 l 300 381 l 394 592 l 88 592 l 88 658 l 425 658 l 522 872 l 578 872 l 481 658 l 657 658 l 657 592 "},">":{"ha":732,"x_min":0,"x_max":0,"o":"m 643 522 l 643 450 l 88 203 l 88 281 l 564 486 l 88 692 l 88 769 "},"<":{"ha":732,"x_min":0,"x_max":0,"o":"m 644 692 l 168 486 l 644 281 l 644 203 l 89 450 l 89 522 l 644 769 "},"≥":{"ha":732,"x_min":0,"x_max":0,"o":"m 643 604 l 643 535 l 88 315 l 88 393 l 557 569 l 88 746 l 88 824 m 88 215 l 643 215 l 643 149 l 88 149 "},"≤":{"ha":732,"x_min":0,"x_max":0,"o":"m 644 746 l 175 569 l 644 393 l 644 315 l 89 535 l 89 604 l 644 824 m 89 215 l 644 215 l 644 149 l 89 149 "},"±":{"ha":740,"x_min":0,"x_max":0,"o":"m 653 608 l 653 540 l 404 540 l 404 306 l 336 306 l 336 540 l 88 540 l 88 608 l 336 608 l 336 843 l 404 843 l 404 608 m 88 197 l 653 197 l 653 129 l 88 129 "},"≈":{"ha":815,"x_min":0,"x_max":0,"o":"m 392 568 b 151 513 233 671 175 600 l 88 543 b 424 626 124 661 229 754 b 663 682 583 522 640 594 l 726 651 b 392 568 692 533 589 439 m 88 321 b 424 404 124 439 229 532 b 663 460 583 300 640 372 l 726 429 b 392 346 692 311 589 217 b 151 290 233 449 175 378 "},"~":{"ha":815,"x_min":0,"x_max":0,"o":"m 726 540 b 392 457 692 422 588 328 b 151 401 233 561 175 489 l 88 432 b 424 515 124 550 229 643 b 663 571 583 411 640 483 "},"¬":{"ha":722,"x_min":0,"x_max":0,"o":"m 635 531 l 635 290 l 564 290 l 564 463 l 88 463 l 88 531 "},"∅":{"ha":1135,"x_min":0,"x_max":0,"o":"m 911 854 b 1071 486 1010 763 1071 632 b 568 -15 1071 208 846 -15 b 271 82 457 -15 354 21 l 179 -28 l 103 -28 l 225 119 b 65 486 126 211 65 342 b 568 988 65 764 290 988 b 865 890 679 988 782 951 l 956 1000 l 1032 1000 l 911 854 m 129 486 b 265 167 129 360 181 247 l 825 843 b 568 926 753 896 664 926 b 129 486 325 926 129 731 m 568 46 b 1006 486 811 46 1006 242 b 871 806 1006 613 954 725 l 310 129 b 568 46 382 76 471 46 "},"∞":{"ha":1119,"x_min":0,"x_max":0,"o":"m 819 704 b 1036 486 943 704 1036 613 b 819 268 1036 360 943 268 b 560 432 699 268 619 356 b 300 268 501 356 422 268 b 83 486 176 268 83 360 b 300 704 83 613 176 704 b 560 540 422 704 501 617 b 819 704 619 617 699 704 m 301 332 b 519 486 396 332 464 410 b 301 640 464 563 396 640 b 153 486 214 640 153 576 b 301 332 153 396 214 332 m 819 332 b 968 486 907 332 968 396 b 819 640 968 576 907 640 b 601 486 726 640 658 563 b 819 332 658 410 726 332 "},"∫":{"ha":606,"x_min":0,"x_max":0,"o":"m 0 -212 b 182 -106 99 -253 164 -207 l 338 801 b 606 975 364 957 463 1017 l 606 907 b 407 800 492 947 425 903 l 253 -107 b 0 -282 226 -262 126 -322 "},"∏":{"ha":889,"x_min":0,"x_max":0,"o":"m 121 972 l 768 972 l 768 -278 l 699 -278 l 699 904 l 190 904 l 190 -278 l 121 -278 "},"∑":{"ha":751,"x_min":0,"x_max":0,"o":"m 79 -210 l 431 361 l 99 903 l 99 972 l 683 972 l 683 904 l 178 904 l 511 361 l 160 -210 l 704 -210 l 704 -278 l 79 -278 "},"√":{"ha":888,"x_min":0,"x_max":0,"o":"m 204 349 l 88 349 l 88 417 l 244 417 l 439 83 l 781 1111 l 856 1111 l 485 0 l 410 0 "},"µ":{"ha":843,"x_min":0,"x_max":0,"o":"m 797 68 l 797 0 l 744 0 b 624 125 671 0 624 49 l 624 129 b 376 -15 571 29 482 -15 b 176 78 285 -15 218 18 l 176 -278 l 107 -278 l 107 694 l 176 694 l 176 263 b 382 51 176 135 251 51 b 624 328 517 51 624 140 l 624 694 l 694 694 l 694 125 b 751 68 694 89 717 68 "},"∂":{"ha":801,"x_min":0,"x_max":0,"o":"m 324 988 b 714 486 540 988 714 793 b 358 -15 714 161 560 -15 b 74 278 179 -15 74 114 b 389 597 74 465 190 597 b 643 519 475 597 565 574 b 324 919 633 738 518 919 b 147 872 260 919 203 906 l 147 940 b 324 988 200 974 258 988 m 358 51 b 642 447 524 51 632 200 b 389 529 564 506 474 529 b 144 278 242 529 144 439 b 358 51 144 150 219 51 "},"%":{"ha":994,"x_min":0,"x_max":0,"o":"m 300 574 b 88 781 178 574 88 665 b 300 988 88 896 178 988 b 513 781 422 988 513 896 b 300 574 513 665 425 574 m 300 638 b 444 781 385 638 444 700 b 300 924 444 861 385 924 b 157 781 217 924 157 861 b 300 638 157 700 217 638 m 800 867 l 847 840 l 186 99 l 140 125 m 693 -15 b 481 192 571 -15 481 76 b 693 399 481 307 571 399 b 906 192 815 399 906 307 b 693 -15 906 76 815 -15 m 693 49 b 838 192 778 49 838 111 b 693 335 838 272 778 335 b 550 192 610 335 550 272 b 693 49 550 111 610 49 "},"‰":{"ha":1494,"x_min":0,"x_max":0,"o":"m 300 574 b 88 781 178 574 88 665 b 300 988 88 896 178 988 b 513 781 422 988 513 896 b 300 574 513 665 425 574 m 300 638 b 444 781 385 638 444 700 b 300 924 444 861 385 924 b 157 781 217 924 157 861 b 300 638 157 700 217 638 m 800 867 l 847 840 l 186 99 l 140 125 m 693 -15 b 481 192 571 -15 481 76 b 693 399 481 307 571 399 b 906 192 815 399 906 307 b 693 -15 906 76 815 -15 m 1193 -15 b 981 192 1071 -15 981 76 b 1193 399 981 307 1071 399 b 1406 192 1315 399 1406 307 b 1193 -15 1406 76 1315 -15 m 693 49 b 838 192 778 49 838 111 b 693 335 838 272 778 335 b 550 192 610 335 550 272 b 693 49 550 111 610 49 m 1193 49 b 1338 192 1278 49 1338 111 b 1193 335 1338 272 1278 335 b 1050 192 1110 335 1050 272 b 1193 49 1050 111 1110 49 "},"↑":{"ha":1010,"x_min":0,"x_max":0,"o":"m 921 460 l 540 840 l 540 0 l 469 0 l 469 842 l 88 460 l 88 556 l 504 972 l 921 556 "},"↗":{"ha":888,"x_min":0,"x_max":0,"o":"m 800 815 l 800 226 l 733 160 l 733 699 l 139 103 l 88 154 l 683 749 l 144 749 l 211 815 "},"→":{"ha":1149,"x_min":0,"x_max":0,"o":"m 1060 486 l 643 69 l 547 69 l 931 453 l 88 453 l 88 519 l 931 519 l 547 903 l 643 903 "},"↘":{"ha":888,"x_min":0,"x_max":0,"o":"m 800 713 l 800 124 l 211 124 l 144 190 l 683 190 l 88 785 l 139 836 l 733 240 l 733 779 "},"↓":{"ha":1010,"x_min":0,"x_max":0,"o":"m 921 513 l 921 417 l 504 0 l 88 417 l 88 513 l 469 131 l 469 972 l 540 972 l 540 132 "},"↙":{"ha":888,"x_min":0,"x_max":0,"o":"m 204 190 l 744 190 l 676 124 l 88 124 l 88 713 l 156 779 l 156 242 l 750 836 l 800 785 "},"←":{"ha":1149,"x_min":0,"x_max":0,"o":"m 1060 453 l 217 453 l 600 69 l 504 69 l 88 486 l 504 903 l 600 903 l 217 519 l 1060 519 "},"↖":{"ha":888,"x_min":0,"x_max":0,"o":"m 750 103 l 156 697 l 156 160 l 88 226 l 88 815 l 676 815 l 744 749 l 204 749 l 800 154 "},"↔":{"ha":1435,"x_min":0,"x_max":0,"o":"m 1347 486 l 1006 143 l 910 143 l 1218 453 l 217 453 l 525 143 l 429 143 l 88 486 l 429 829 l 525 829 l 217 519 l 1218 519 l 910 829 l 1006 829 "},"↕":{"ha":871,"x_min":0,"x_max":0,"o":"m 471 983 l 471 -11 l 778 294 l 778 199 l 435 -143 l 93 199 l 93 294 l 400 -12 l 400 985 l 93 678 l 93 774 l 435 1115 l 778 774 l 778 678 "},"◊":{"ha":747,"x_min":0,"x_max":0,"o":"m 79 486 l 338 972 l 410 972 l 668 486 l 410 0 l 338 0 m 593 486 l 374 896 l 154 486 l 374 76 "},"@":{"ha":1121,"x_min":0,"x_max":0,"o":"m 571 850 b 1057 375 881 850 1057 604 b 863 85 1057 163 956 85 b 717 213 785 85 729 131 b 550 125 681 160 622 125 b 325 347 421 125 325 222 b 550 569 325 472 421 569 b 714 486 619 569 678 538 l 714 560 l 781 560 l 781 250 b 872 124 781 182 804 124 b 1019 375 953 124 1019 200 b 571 815 1019 625 824 815 b 101 347 311 815 101 614 b 596 -121 101 76 311 -121 b 833 -82 689 -121 767 -108 l 838 -118 b 596 -156 772 -142 694 -156 b 65 347 293 -156 65 56 b 571 850 65 625 282 850 m 553 189 b 714 347 642 189 714 253 b 553 506 714 442 642 506 b 392 347 464 506 392 442 b 553 189 392 253 464 189 "},"&":{"ha":910,"x_min":0,"x_max":0,"o":"m 807 -11 l 694 107 b 404 -15 629 32 533 -15 b 88 258 213 -15 88 90 b 281 542 88 379 154 486 b 203 732 236 593 203 650 b 478 988 203 892 333 988 b 749 804 600 988 707 919 l 688 768 b 479 917 658 860 578 917 b 278 735 364 917 278 842 b 383 539 278 656 324 600 l 688 221 b 746 414 715 272 736 338 l 811 376 b 739 167 799 300 775 228 l 872 26 m 401 56 b 644 160 500 56 583 90 l 332 488 b 163 260 210 442 163 349 b 401 56 163 132 256 56 "},"¶":{"ha":792,"x_min":0,"x_max":0,"o":"m 732 907 l 649 907 l 649 -278 l 579 -278 l 579 907 l 397 907 l 397 -278 l 329 -278 l 329 435 b 60 704 179 435 60 556 b 329 972 60 853 179 972 l 732 972 "},"§":{"ha":706,"x_min":0,"x_max":0,"o":"m 554 190 b 618 47 593 154 618 108 b 371 -156 618 -67 522 -156 b 90 25 229 -156 132 -89 l 150 60 b 371 -87 182 -43 263 -87 b 547 47 471 -87 547 -39 b 314 243 547 146 432 193 b 88 476 204 290 88 349 b 185 643 88 544 126 604 b 125 783 149 679 125 724 b 361 988 125 897 221 988 b 608 825 479 988 568 929 l 551 793 b 361 921 517 879 447 921 b 196 783 271 921 196 868 b 422 592 196 685 306 643 b 646 357 532 543 646 485 b 554 190 646 289 611 231 m 158 476 b 342 303 158 385 244 340 b 500 232 396 282 453 260 b 575 357 551 264 575 310 b 392 532 575 449 489 492 b 238 603 339 553 285 575 b 158 476 183 571 158 525 "},"©":{"ha":1135,"x_min":0,"x_max":0,"o":"m 568 -15 b 65 486 290 -15 65 208 b 568 988 65 764 290 988 b 1071 486 846 988 1071 764 b 568 -15 1071 208 846 -15 m 568 18 b 1033 486 825 18 1033 226 b 568 954 1033 746 825 954 b 101 486 311 954 101 746 b 568 18 101 226 311 18 m 572 219 b 303 486 418 219 303 338 b 572 753 303 635 418 753 b 799 624 672 753 756 701 l 740 590 b 572 688 710 653 643 688 b 372 486 451 688 372 593 b 572 285 372 379 451 285 b 740 383 644 285 711 319 l 800 349 b 572 219 757 271 672 219 "},"®":{"ha":1135,"x_min":0,"x_max":0,"o":"m 568 988 b 1071 486 846 988 1071 764 b 568 -15 1071 208 846 -15 b 65 486 290 -15 65 208 b 568 988 65 764 290 988 m 568 18 b 1033 486 825 18 1033 226 b 568 954 1033 746 825 954 b 101 486 311 954 101 746 b 568 18 101 226 311 18 m 763 582 b 658 435 763 511 729 457 l 775 229 l 701 229 l 593 422 l 574 422 l 486 422 l 486 229 l 419 229 l 419 743 l 574 743 b 763 582 703 743 763 664 m 576 486 b 696 582 658 486 696 524 b 576 679 696 639 656 679 l 486 679 l 486 486 "},"™":{"ha":664,"x_min":0,"x_max":0,"o":"m 279 929 l 197 929 l 197 694 l 151 694 l 151 929 l 69 929 l 69 972 l 279 972 m 594 972 l 594 694 l 549 694 l 549 893 l 458 749 l 453 749 l 363 893 l 363 694 l 317 694 l 317 972 l 363 972 l 456 824 l 549 972 "},"°":{"ha":536,"x_min":0,"x_max":0,"o":"m 268 718 b 60 921 149 718 60 808 b 268 1125 60 1033 149 1125 b 476 921 388 1125 476 1033 b 268 718 476 808 390 718 m 268 782 b 407 921 350 782 407 843 b 268 1061 407 1000 349 1061 b 129 921 188 1061 129 1000 b 268 782 129 843 188 782 "},"|":{"ha":311,"x_min":0,"x_max":0,"o":"m 121 1000 l 190 1000 l 190 -278 l 121 -278 "},"¦":{"ha":311,"x_min":0,"x_max":0,"o":"m 121 1000 l 190 1000 l 190 486 l 121 486 m 121 236 l 190 236 l 190 -278 l 121 -278 "},"†":{"ha":657,"x_min":0,"x_max":0,"o":"m 569 665 l 364 665 l 364 0 l 293 0 l 293 665 l 88 665 l 88 732 l 293 732 l 293 972 l 364 972 l 364 732 l 569 732 "},"‡":{"ha":657,"x_min":0,"x_max":0,"o":"m 364 665 l 364 307 l 569 307 l 569 240 l 364 240 l 364 0 l 293 0 l 293 240 l 88 240 l 88 307 l 293 307 l 293 665 l 88 665 l 88 732 l 293 732 l 293 972 l 364 972 l 364 732 l 569 732 l 569 665 "},"℮":{"ha":1157,"x_min":0,"x_max":0,"o":"m 579 986 b 1093 486 886 986 1093 763 b 1072 465 1093 472 1086 465 l 294 465 b 274 444 281 465 274 458 l 274 178 b 283 151 274 167 276 160 b 607 28 358 72 461 28 b 928 163 744 28 853 78 b 953 175 935 171 942 175 l 1004 175 b 1017 149 1022 175 1029 163 b 607 -14 924 49 783 -14 b 65 486 272 -14 65 210 b 579 986 65 763 272 986 m 885 794 b 875 821 885 806 882 813 b 579 944 800 900 697 944 b 283 821 461 944 358 900 b 274 794 276 813 274 806 l 274 528 b 294 507 274 514 281 507 l 864 507 b 885 528 878 507 885 514 l 885 794 "},"№":{"ha":1415,"x_min":0,"x_max":0,"o":"m 1147 581 b 939 783 1028 581 939 671 b 1147 988 939 896 1028 988 b 1356 783 1267 988 1356 896 b 1147 581 1356 671 1269 581 m 833 972 l 833 0 l 768 0 l 194 836 l 194 0 l 121 0 l 121 972 l 185 972 l 760 136 l 760 972 m 1147 644 b 1286 783 1229 644 1286 706 b 1147 924 1286 863 1228 924 b 1008 783 1067 924 1008 863 b 1147 644 1008 706 1067 644 m 956 471 l 1340 471 l 1340 403 l 956 403 "},"^":{"ha":697,"x_min":0,"x_max":0,"o":"m 628 556 l 546 556 l 349 893 l 151 556 l 69 556 l 314 972 l 383 972 "},"̈":{"ha":0,"x_min":0,"x_max":0,"o":"m -328 801 b -379 851 -357 801 -379 824 b -328 903 -379 881 -357 903 b -278 851 -300 903 -278 881 b -328 801 -278 824 -300 801 m -78 801 b -129 851 -107 801 -129 824 b -78 903 -129 881 -107 903 b -28 851 -50 903 -28 881 b -78 801 -28 824 -50 801 "},"̇":{"ha":0,"x_min":0,"x_max":0,"o":"m -92 796 b -157 861 -129 796 -157 825 b -92 926 -157 897 -129 926 b -28 861 -56 926 -28 897 b -92 796 -28 825 -56 796 "},"̀":{"ha":0,"x_min":0,"x_max":0,"o":"m -139 968 l -222 968 l -94 792 l -28 792 "},"́":{"ha":0,"x_min":0,"x_max":0,"o":"m -154 792 l -28 968 l -111 968 l -222 792 "},"̋":{"ha":0,"x_min":0,"x_max":0,"o":"m -339 792 l -235 972 l -312 972 l -410 792 m -142 792 l -24 972 l -101 972 l -212 792 "},"̂":{"ha":0,"x_min":0,"x_max":0,"o":"m -107 792 l -218 924 l -331 792 l -410 792 l -260 968 l -178 968 l -28 792 "},"̌":{"ha":0,"x_min":0,"x_max":0,"o":"m -26 968 l -176 792 l -260 792 l -410 968 l -329 968 l -218 836 l -107 968 "},"̆":{"ha":0,"x_min":0,"x_max":0,"o":"m -222 785 b -407 954 -333 785 -407 849 l -340 954 b -222 846 -340 882 -296 846 b -104 954 -149 846 -104 882 l -37 954 b -222 785 -37 849 -110 785 "},"̊":{"ha":0,"x_min":0,"x_max":0,"o":"m -171 768 b -312 903 -256 768 -312 826 b -171 1038 -312 979 -256 1038 b -28 903 -85 1038 -28 979 b -171 768 -28 826 -85 768 m -171 824 b -86 903 -118 824 -86 857 b -171 982 -86 949 -118 982 b -253 903 -222 982 -253 949 b -171 824 -253 857 -222 824 "},"̃":{"ha":0,"x_min":0,"x_max":0,"o":"m -406 810 b -214 913 -406 967 -310 996 b -89 951 -136 846 -89 844 l -28 951 b -219 849 -28 796 -124 765 b -344 810 -297 915 -344 918 l -406 810 "},"̄":{"ha":0,"x_min":0,"x_max":0,"o":"m -379 876 l -28 876 l -28 815 l -379 815 "},"̒":{"ha":0,"x_min":0,"x_max":0,"o":"m -112 1097 l -42 1097 l -28 1333 l -78 1333 "},"̦":{"ha":0,"x_min":0,"x_max":0,"o":"m -28 -97 l -99 -97 l -112 -333 l -62 -333 "},"̧":{"ha":0,"x_min":0,"x_max":0,"o":"m -154 -78 b -28 -182 -83 -86 -28 -122 b -299 -293 -28 -250 -87 -310 l -299 -236 b -89 -182 -158 -250 -89 -226 b -217 -122 -89 -142 -135 -122 l -217 0 l -154 0 l -154 -78 "},"̨":{"ha":0,"x_min":0,"x_max":0,"o":"m -103 -293 b -212 -193 -174 -293 -212 -253 b -103 0 -212 -136 -176 -67 l -29 0 b -144 -182 -100 -64 -144 -129 b -87 -233 -144 -217 -122 -233 b -28 -221 -65 -233 -47 -229 l -28 -279 b -103 -293 -50 -289 -74 -293 "},"´":{"ha":250,"x_min":0,"x_max":0,"o":"m 96 792 l 222 968 l 139 968 l 28 792 "},"˘":{"ha":426,"x_min":0,"x_max":0,"o":"m 213 785 b 28 954 101 785 28 849 l 94 954 b 213 846 94 882 139 846 b 331 954 286 846 331 882 l 397 954 b 213 785 397 849 325 785 "},"ˇ":{"ha":438,"x_min":0,"x_max":0,"o":"m 411 968 l 261 792 l 178 792 l 28 968 l 108 968 l 219 836 l 331 968 "},"¸":{"ha":317,"x_min":0,"x_max":0,"o":"m 167 -78 b 293 -182 238 -86 293 -122 b 22 -293 293 -250 233 -310 l 22 -236 b 232 -182 163 -250 232 -226 b 104 -122 232 -142 186 -122 l 104 0 l 167 0 l 167 -78 "},"ˆ":{"ha":438,"x_min":0,"x_max":0,"o":"m 331 792 l 219 924 l 107 792 l 28 792 l 178 968 l 260 968 l 410 792 "},"¨":{"ha":407,"x_min":0,"x_max":0,"o":"m 79 801 b 28 851 50 801 28 824 b 79 903 28 881 50 903 b 129 851 107 903 129 881 b 79 801 129 824 107 801 m 329 801 b 278 851 300 801 278 824 b 329 903 278 881 300 903 b 379 851 357 903 379 881 b 329 801 379 824 357 801 "},"˙":{"ha":185,"x_min":0,"x_max":0,"o":"m 93 796 b 28 861 56 796 28 825 b 93 926 28 897 56 926 b 157 861 129 926 157 897 b 93 796 157 825 129 796 "},"`":{"ha":250,"x_min":0,"x_max":0,"o":"m 111 968 l 28 968 l 156 792 l 222 792 "},"˝":{"ha":442,"x_min":0,"x_max":0,"o":"m 99 792 l 203 972 l 125 972 l 28 792 m 296 792 l 414 972 l 336 972 l 225 792 "},"¯":{"ha":407,"x_min":0,"x_max":0,"o":"m 28 876 l 379 876 l 379 815 l 28 815 "},"˛":{"ha":240,"x_min":0,"x_max":0,"o":"m 138 -293 b 28 -193 67 -293 28 -253 b 138 0 28 -136 64 -67 l 211 0 b 96 -182 140 -64 96 -129 b 153 -233 96 -217 118 -233 b 213 -221 175 -233 193 -229 l 213 -279 b 138 -293 190 -289 167 -293 "},"˚":{"ha":340,"x_min":0,"x_max":0,"o":"m 169 768 b 28 903 85 768 28 826 b 169 1038 28 979 85 1038 b 313 903 256 1038 313 979 b 169 768 313 826 256 768 m 169 824 b 254 903 222 824 254 857 b 169 982 254 949 222 982 b 88 903 118 982 88 949 b 169 824 88 857 118 824 "},"˜":{"ha":433,"x_min":0,"x_max":0,"o":"m 28 810 b 219 913 28 967 124 996 b 344 951 297 846 344 844 l 406 951 b 214 849 406 796 310 765 b 89 810 136 915 89 918 l 28 810 "}}}
